<?xml version="1.0" encoding="UTF-8" standalone="no"?>
<svg
   width="455.3822pt"
   height="541.78058pt"
   version="1.1"
   viewBox="0 0 455.3822 541.78058"
   id="svg11163"
   sodipodi:docname="baggage-claim.svg"
   inkscape:version="1.1.1 (3bf5ae0, 2021-09-20)"
   xmlns:inkscape="http://www.inkscape.org/namespaces/inkscape"
   xmlns:sodipodi="http://sodipodi.sourceforge.net/DTD/sodipodi-0.dtd"
   xmlns:xlink="http://www.w3.org/1999/xlink"
   xmlns="http://www.w3.org/2000/svg"
   xmlns:svg="http://www.w3.org/2000/svg">
  <sodipodi:namedview
     id="namedview11165"
     pagecolor="#ffffff"
     bordercolor="#666666"
     borderopacity="1.0"
     inkscape:pageshadow="2"
     inkscape:pageopacity="0.0"
     inkscape:pagecheckerboard="0"
     inkscape:document-units="pt"
     showgrid="false"
     fit-margin-top="0"
     fit-margin-left="0"
     fit-margin-right="0"
     fit-margin-bottom="0"
     inkscape:zoom="1.2117857"
     inkscape:cx="296.66961"
     inkscape:cy="450.98733"
     inkscape:window-width="3440"
     inkscape:window-height="1343"
     inkscape:window-x="0"
     inkscape:window-y="0"
     inkscape:window-maximized="1"
     inkscape:current-layer="svg11163" />
  <defs
     id="defs11065">
    <symbol
       id="v"
       overflow="visible">
      <path
         d="m 17,-1.0156 c -0.875,0.46094 -1.7891,0.80469 -2.7344,1.0312 -0.94922,0.22656 -1.9453,0.34375 -2.9844,0.34375 -3.0742,0 -5.5117,-0.85938 -7.3125,-2.5781 -1.8047,-1.7266 -2.7031,-4.0664 -2.7031,-7.0156 0,-2.957 0.89844,-5.2969 2.7031,-7.0156 1.8008,-1.7188 4.2383,-2.5781 7.3125,-2.5781 1.0391,0 2.0352,0.11719 2.9844,0.34375 0.94531,0.23047 1.8594,0.57422 2.7344,1.0312 v 3.8281 c -0.88672,-0.60156 -1.7617,-1.0469 -2.625,-1.3281 -0.85547,-0.28125 -1.7578,-0.42188 -2.7031,-0.42188 -1.6992,0 -3.0391,0.54688 -4.0156,1.6406 -0.98047,1.0859 -1.4688,2.5859 -1.4688,4.5 0,1.9062 0.48828,3.4062 1.4688,4.5 0.97656,1.0938 2.3164,1.6406 4.0156,1.6406 0.94531,0 1.8477,-0.14062 2.7031,-0.42188 0.86328,-0.28125 1.7383,-0.72266 2.625,-1.3281 z"
         id="path10999" />
    </symbol>
    <symbol
       id="c"
       overflow="visible">
      <path
         d="m 12.438,-10.094 c -0.38672,-0.1875 -0.77344,-0.32031 -1.1562,-0.40625 -0.38672,-0.08203 -0.77344,-0.125 -1.1562,-0.125 -1.1484,0 -2.0273,0.36719 -2.6406,1.0938 -0.61719,0.73047 -0.92188,1.7773 -0.92188,3.1406 v 6.3906 h -4.4375 v -13.875 h 4.4375 v 2.2812 c 0.57031,-0.90625 1.2266,-1.5664 1.9688,-1.9844 0.73828,-0.42578 1.625,-0.64062 2.6562,-0.64062 0.14453,0 0.30469,0.01172 0.48438,0.03125 0.17578,0.01172 0.42578,0.03906 0.75,0.07813 z"
         id="path11002" />
    </symbol>
    <symbol
       id="a"
       overflow="visible">
      <path
         d="m 15.984,-6.9688 v 1.25 H 5.609 c 0.11328,1.043 0.48828,1.8242 1.125,2.3438 0.64453,0.52344 1.5469,0.78125 2.7031,0.78125 0.9375,0 1.8945,-0.13281 2.875,-0.40625 0.97656,-0.28125 1.9844,-0.70312 3.0156,-1.2656 v 3.4219 c -1.0547,0.39844 -2.1055,0.69531 -3.1562,0.89062 -1.043,0.20703 -2.0898,0.3125 -3.1406,0.3125 -2.5117,0 -4.4648,-0.63281 -5.8594,-1.9062 -1.3867,-1.2812 -2.0781,-3.0703 -2.0781,-5.375 0,-2.2695 0.67969,-4.0508 2.0469,-5.3438 1.3633,-1.3008 3.2422,-1.9531 5.6406,-1.9531 2.1875,0 3.9297,0.66406 5.2344,1.9844 1.3125,1.3125 1.9688,3.0703 1.9688,5.2656 z m -4.5625,-1.4844 c 0,-0.84375 -0.24609,-1.5195 -0.73438,-2.0312 -0.49219,-0.51953 -1.1328,-0.78125 -1.9219,-0.78125 -0.86719,0 -1.5703,0.24609 -2.1094,0.73438 -0.53125,0.48047 -0.86719,1.1719 -1,2.0781 z"
         id="path11005" />
    </symbol>
    <symbol
       id="k"
       overflow="visible">
      <path
         d="m 8.3438,-6.25 c -0.91797,0 -1.6094,0.16406 -2.0781,0.48438 -0.46875,0.3125 -0.70312,0.77344 -0.70312,1.375 0,0.5625 0.1875,1.0078 0.5625,1.3281 0.375,0.3125 0.89453,0.46875 1.5625,0.46875 0.84375,0 1.5469,-0.29688 2.1094,-0.89062 0.57031,-0.60156 0.85938,-1.3516 0.85938,-2.25 V -6.25001 Z M 15.125,-7.9219 V 0 H 10.6562 V -2.0625 C 10.06245,-1.21875 9.3906,-0.6016 8.6406,-0.2187 7.89841,0.16411 7,0.35942 5.9375,0.35942 c -1.4375,0 -2.6055,-0.41406 -3.5,-1.25 -0.89844,-0.84375 -1.3438,-1.9297 -1.3438,-3.2656 0,-1.6328 0.55469,-2.832 1.6719,-3.5938 1.125,-0.75781 2.8828,-1.1406 5.2812,-1.1406 h 2.6094 v -0.34375 c 0,-0.69531 -0.27734,-1.207 -0.82812,-1.5312 -0.55469,-0.33203 -1.418,-0.5 -2.5938,-0.5 -0.94922,0 -1.8359,0.10156 -2.6562,0.29688 -0.8125,0.1875 -1.5742,0.46875 -2.2812,0.84375 v -3.375 c 0.95703,-0.23828 1.9141,-0.41406 2.875,-0.53125 0.95703,-0.125 1.9141,-0.1875 2.875,-0.1875 2.5,0 4.3008,0.49609 5.4062,1.4844 1.1133,0.99219 1.6719,2.5938 1.6719,4.8125 z"
         id="path11008" />
    </symbol>
    <symbol
       id="b"
       overflow="visible">
      <path
         d="m 6.9688,-17.812 v 3.9375 h 4.5781 v 3.1719 H 6.9688 v 5.8906 c 0,0.63672 0.12891,1.0703 0.39062,1.2969 0.25781,0.23047 0.76953,0.34375 1.5312,0.34375 h 2.2656 v 3.1719 h -3.7969 c -1.75,0 -2.9922,-0.36328 -3.7188,-1.0938 -0.73047,-0.72656 -1.0938,-1.9688 -1.0938,-3.7188 v -5.8906 h -2.2188 v -3.1719 h 2.2188 v -3.9375 z"
         id="path11011" />
    </symbol>
    <symbol
       id="f"
       overflow="visible">
      <path
         d="m 11.578,-11.844 v -7.4375 h 4.4531 V -5e-4 H 11.578 v -2 c -0.61719,0.8125 -1.293,1.4141 -2.0312,1.7969 -0.73047,0.375 -1.5781,0.5625 -2.5469,0.5625 -1.7109,0 -3.1172,-0.67578 -4.2188,-2.0312 -1.0938,-1.3633 -1.6406,-3.1133 -1.6406,-5.25 0,-2.1445 0.54688,-3.8945 1.6406,-5.25 1.1016,-1.3633 2.5078,-2.0469 4.2188,-2.0469 0.95703,0 1.8047,0.19531 2.5469,0.57812 0.73828,0.38672 1.4141,0.98438 2.0312,1.7969 z m -2.9375,8.9844 c 0.95703,0 1.6875,-0.34375 2.1875,-1.0312 0.5,-0.69531 0.75,-1.707 0.75,-3.0312 0,-1.3203 -0.25,-2.3281 -0.75,-3.0156 -0.5,-0.69531 -1.2305,-1.0469 -2.1875,-1.0469 -0.9375,0 -1.6562,0.35156 -2.1562,1.0469 -0.5,0.6875 -0.75,1.6953 -0.75,3.0156 0,1.3242 0.25,2.3359 0.75,3.0312 0.5,0.6875 1.2188,1.0312 2.1562,1.0312 z"
         id="path11014" />
    </symbol>
    <symbol
       id="j"
       overflow="visible">
      <path
         d="m 9.5156,-2.8594 c 0.94531,0 1.6719,-0.34375 2.1719,-1.0312 0.5,-0.69531 0.75,-1.707 0.75,-3.0312 0,-1.3203 -0.25,-2.3281 -0.75,-3.0156 -0.5,-0.69531 -1.2266,-1.0469 -2.1719,-1.0469 -0.94922,0 -1.6797,0.35156 -2.1875,1.0469 -0.51172,0.69922 -0.76562,1.7031 -0.76562,3.0156 0,1.3125 0.25391,2.3203 0.76562,3.0156 0.50781,0.69922 1.2383,1.0469 2.1875,1.0469 z m -2.9531,-8.9844 c 0.61328,-0.8125 1.2891,-1.4102 2.0312,-1.7969 0.75,-0.38281 1.6016,-0.57812 2.5625,-0.57812 1.7188,0 3.125,0.68359 4.2188,2.0469 1.1016,1.3555 1.6562,3.1055 1.6562,5.25 0,2.1367 -0.55469,3.8867 -1.6562,5.25 -1.0938,1.3555 -2.5,2.0312 -4.2188,2.0312 -0.96094,0 -1.8125,-0.19531 -2.5625,-0.57812 -0.74219,-0.38281 -1.418,-0.97656 -2.0312,-1.7812 v 2 H 2.125 v -19.281 h 4.4375 z"
         id="path11017" />
    </symbol>
    <symbol
       id="i"
       overflow="visible">
      <path
         d="M 0.3125,-13.875 H 4.75 l 3.7188,9.4219 3.1719,-9.4219 h 4.4375 L 10.2501,1.313 C 9.65635,2.8521 8.9689,3.9302 8.1876,4.5474 7.41416,5.16068 6.3907,5.46928 5.1095,5.46928 H 2.547 v -2.9062 h 1.375 c 0.75781,0 1.3047,-0.12109 1.6406,-0.35938 C 5.90635,1.96151 6.17588,1.53573 6.3751,0.9225 l 0.125,-0.39062 z"
         id="path11020" />
    </symbol>
    <symbol
       id="e"
       overflow="visible">
      <path
         d="m 13.344,-13.438 v 3.6094 c -0.60547,-0.40625 -1.2109,-0.70703 -1.8125,-0.90625 -0.60547,-0.20703 -1.2344,-0.3125 -1.8906,-0.3125 -1.2422,0 -2.2031,0.36719 -2.8906,1.0938 -0.6875,0.71875 -1.0312,1.7305 -1.0312,3.0312 0,1.293 0.34375,2.3047 1.0312,3.0312 0.6875,0.71875 1.6484,1.0781 2.8906,1.0781 0.69531,0 1.3516,-0.10156 1.9688,-0.3125 0.625,-0.20703 1.2031,-0.51562 1.7344,-0.92188 v 3.6406 c -0.69922,0.25 -1.4062,0.4375 -2.125,0.5625 -0.71094,0.13281 -1.4219,0.20312 -2.1406,0.20312 -2.5,0 -4.4609,-0.64062 -5.875,-1.9219 -1.4062,-1.2891 -2.1094,-3.0781 -2.1094,-5.3594 0,-2.2891 0.70312,-4.0781 2.1094,-5.3594 1.4141,-1.2891 3.375,-1.9375 5.875,-1.9375 0.72656,0 1.4453,0.07031 2.1562,0.20312 0.70703,0.125 1.4102,0.32031 2.1094,0.57812 z"
         id="path11023" />
    </symbol>
    <symbol
       id="d"
       overflow="visible">
      <path
         d="m 8.7344,-11.047 c -0.98047,0 -1.7305,0.35547 -2.25,1.0625 -0.51172,0.71094 -0.76562,1.7305 -0.76562,3.0625 0,1.3242 0.25391,2.3398 0.76562,3.0469 0.51953,0.71094 1.2695,1.0625 2.25,1.0625 0.96875,0 1.707,-0.35156 2.2188,-1.0625 0.50781,-0.70703 0.76562,-1.7227 0.76562,-3.0469 0,-1.332 -0.25781,-2.3516 -0.76562,-3.0625 -0.51172,-0.70703 -1.25,-1.0625 -2.2188,-1.0625 z m 0,-3.1719 c 2.3828,0 4.25,0.64844 5.5938,1.9375 1.3438,1.293 2.0156,3.0781 2.0156,5.3594 0,2.2813 -0.67188,4.0703 -2.0156,5.3594 -1.3438,1.2812 -3.2109,1.9219 -5.5938,1.9219 -2.3984,0 -4.2734,-0.64062 -5.625,-1.9219 -1.3438,-1.2891 -2.0156,-3.0781 -2.0156,-5.3594 0,-2.2813 0.67188,-4.0664 2.0156,-5.3594 1.3516,-1.2891 3.2266,-1.9375 5.625,-1.9375 z"
         id="path11026" />
    </symbol>
    <symbol
       id="u"
       overflow="visible">
      <path
         d="M 6.5625,-2 V 5.2812 H 2.125 v -19.156 h 4.4375 v 2.0312 c 0.61328,-0.8125 1.2891,-1.4102 2.0312,-1.7969 0.75,-0.38281 1.6016,-0.57812 2.5625,-0.57812 1.7188,0 3.125,0.68359 4.2188,2.0469 1.1016,1.3555 1.6562,3.1055 1.6562,5.25 0,2.1367 -0.55469,3.8867 -1.6562,5.25 -1.0938,1.3555 -2.5,2.0312 -4.2188,2.0312 -0.96094,0 -1.8125,-0.19531 -2.5625,-0.57812 -0.74219,-0.38281 -1.418,-0.97656 -2.0312,-1.7812 z m 2.9531,-8.9844 c -0.94922,0 -1.6797,0.35156 -2.1875,1.0469 -0.51172,0.69922 -0.76562,1.7031 -0.76562,3.0156 0,1.3125 0.25391,2.3203 0.76562,3.0156 0.50781,0.69922 1.2383,1.0469 2.1875,1.0469 0.94531,0 1.6719,-0.34375 2.1719,-1.0312 0.5,-0.69531 0.75,-1.707 0.75,-3.0312 0,-1.3203 -0.25,-2.3281 -0.75,-3.0156 -0.5,-0.69531 -1.2266,-1.0469 -2.1719,-1.0469 z"
         id="path11029" />
    </symbol>
    <symbol
       id="h"
       overflow="visible">
      <path
         d="m 1.9844,-5.4062 v -8.4688 h 4.4531 v 1.3906 c 0,0.75 -0.00781,1.6953 -0.015625,2.8281 v 2.2656 c 0,1.1172 0.023437,1.9219 0.078125,2.4219 0.0625,0.49219 0.16016,0.84375 0.29688,1.0625 0.1875,0.29297 0.42578,0.51562 0.71875,0.67188 0.28906,0.15625 0.62891,0.23438 1.0156,0.23438 0.91406,0 1.6406,-0.35156 2.1719,-1.0625 0.53125,-0.70703 0.79688,-1.6953 0.79688,-2.9688 v -6.8438 h 4.4375 v 13.875 h -4.4375 v -2 c -0.66797,0.80469 -1.375,1.3984 -2.125,1.7812 -0.75,0.3828 -1.5742,0.57812 -2.4688,0.57812 -1.6055,0 -2.8281,-0.48828 -3.6719,-1.4688 -0.83594,-0.98828 -1.25,-2.4219 -1.25,-4.2969 z"
         id="path11032" />
    </symbol>
    <symbol
       id="t"
       overflow="visible">
      <path
         d="m 12.969,-13.438 v 3.3594 c -0.94922,-0.39453 -1.8672,-0.69141 -2.75,-0.89062 -0.88672,-0.19531 -1.7188,-0.29688 -2.5,-0.29688 -0.84375,0 -1.4688,0.10938 -1.875,0.32812 -0.40625,0.21094 -0.60938,0.53125 -0.60938,0.96875 0,0.35547 0.14844,0.625 0.45312,0.8125 0.3125,0.1875 0.86719,0.32812 1.6719,0.42188 l 0.78125,0.10938 c 2.2695,0.29297 3.7969,0.77344 4.5781,1.4375 0.78906,0.65625 1.1875,1.6875 1.1875,3.0938 0,1.4805 -0.54688,2.5938 -1.6406,3.3438 -1.0938,0.74219 -2.7188,1.1094 -4.875,1.1094 -0.91797,0 -1.8672,-0.074219 -2.8438,-0.21875 C 3.56662,-0.00425 2.56269,-0.223 1.53149,-0.51597 v -3.3594 c 0.875,0.42969 1.7734,0.75 2.7031,0.96875 0.9375,0.21094 1.8828,0.3125 2.8438,0.3125 0.86328,0 1.5156,-0.11719 1.9531,-0.35938 0.4375,-0.23828 0.65625,-0.59375 0.65625,-1.0625 0,-0.39453 -0.15234,-0.6875 -0.45312,-0.875 C 8.92993,-5.08631 8.33228,-5.24256 7.43772,-5.35975 L 6.65647,-5.4535 c -1.9805,-0.25 -3.3672,-0.70703 -4.1562,-1.375 -0.79297,-0.66406 -1.1875,-1.6797 -1.1875,-3.0469 0,-1.4688 0.50391,-2.5547 1.5156,-3.2656 1.0078,-0.71875 2.5508,-1.0781 4.625,-1.0781 0.82031,0 1.6797,0.0625 2.5781,0.1875 0.90625,0.125 1.8828,0.32422 2.9375,0.59375 z"
         id="path11035" />
    </symbol>
    <symbol
       id="s"
       overflow="visible">
      <path
         d="M 2.125,-19.281 H 6.5625 V 0 H 2.125 Z"
         id="path11038" />
    </symbol>
    <symbol
       id="g"
       overflow="visible">
      <path
         d="M 2.125,-13.875 H 6.5625 V 0 H 2.125 Z m 0,-5.4062 h 4.4375 v 3.625 H 2.125 Z"
         id="path11041" />
    </symbol>
    <symbol
       id="r"
       overflow="visible">
      <path
         d="m 11.266,-19.281 v 2.9062 H 8.8129 c -0.625,0 -1.0625,0.11719 -1.3125,0.34375 -0.25,0.23047 -0.375,0.625 -0.375,1.1875 v 0.96875 h 3.7969 v 3.1719 H 7.1254 V 10e-5 H 2.6879 v -10.703 H 0.4848 v -3.1719 h 2.2031 v -0.96875 c 0,-1.5078 0.42188,-2.625 1.2656,-3.3438 0.84375,-0.72656 2.1484,-1.0938 3.9219,-1.0938 z"
         id="path11044" />
    </symbol>
    <symbol
       id="q"
       overflow="visible">
      <path
         d="m 14.984,-11.578 c 0.5625,-0.85156 1.2266,-1.5039 2,-1.9531 0.78125,-0.45703 1.6328,-0.6875 2.5625,-0.6875 1.5938,0 2.8047,0.49609 3.6406,1.4844 0.83203,0.98047 1.25,2.4062 1.25,4.2812 V 1e-4 h -4.4688 v -7.2344 c 0.0078,-0.10156 0.01563,-0.21094 0.01563,-0.32812 0.0078,-0.125 0.01563,-0.28906 0.01563,-0.5 0,-0.98828 -0.14844,-1.7031 -0.4375,-2.1406 -0.29297,-0.4375 -0.76172,-0.65625 -1.4062,-0.65625 -0.83594,0 -1.4805,0.35156 -1.9375,1.0469 -0.46094,0.6875 -0.69922,1.6875 -0.71875,3 v 6.8125 h -4.4531 v -7.2344 c 0,-1.5391 -0.13672,-2.5312 -0.40625,-2.9688 -0.26172,-0.4375 -0.73047,-0.65625 -1.4062,-0.65625 -0.85547,0 -1.5156,0.35156 -1.9844,1.0469 -0.46094,0.69922 -0.6875,1.6953 -0.6875,2.9844 V 8e-5 h -4.4531 v -13.875 h 4.4531 v 2.0312 c 0.55078,-0.78125 1.1758,-1.3672 1.875,-1.7656 0.70703,-0.40625 1.4883,-0.60938 2.3438,-0.60938 0.95703,0 1.8008,0.23438 2.5312,0.70312 0.73828,0.46094 1.2969,1.1055 1.6719,1.9375 z"
         id="path11047" />
    </symbol>
    <symbol
       id="p"
       overflow="visible">
      <path
         d="M 16.078,-8.4531 V 0 h -4.4531 v -6.4375 c 0,-1.2188 -0.03125,-2.0508 -0.09375,-2.5 -0.05469,-0.45703 -0.14062,-0.79688 -0.26562,-1.0156 -0.17969,-0.28906 -0.41797,-0.51562 -0.71875,-0.67188 -0.29297,-0.15625 -0.625,-0.23438 -1,-0.23438 -0.92969,0 -1.6562,0.35938 -2.1875,1.0781 -0.53125,0.71094 -0.79688,1.6953 -0.79688,2.9531 V -6e-5 H 2.1249 v -19.281 h 4.4375 v 7.4375 c 0.67578,-0.8125 1.3906,-1.4102 2.1406,-1.7969 0.75,-0.38281 1.5781,-0.57812 2.4844,-0.57812 1.6016,0 2.8164,0.49609 3.6406,1.4844 0.83203,0.98047 1.25,2.4062 1.25,4.2812 z"
         id="path11050" />
    </symbol>
    <symbol
       id="o"
       overflow="visible">
      <path
         d="m 2.3281,-18.5 h 5.3281 l 6.7344,12.688 V -18.5 h 4.5156 V 0 H 13.5781 L 6.8593,-12.688 V 0 H 2.3281 Z"
         id="path11053" />
    </symbol>
    <symbol
       id="n"
       overflow="visible">
      <path
         d="M 16.078,-8.4531 V 0 h -4.4531 v -6.4688 c 0,-1.1953 -0.03125,-2.0195 -0.09375,-2.4688 -0.05469,-0.45703 -0.14062,-0.79688 -0.26562,-1.0156 -0.17969,-0.28906 -0.41797,-0.51562 -0.71875,-0.67188 -0.29297,-0.15625 -0.625,-0.23438 -1,-0.23438 -0.92969,0 -1.6562,0.35938 -2.1875,1.0781 -0.53125,0.71094 -0.79688,1.6953 -0.79688,2.9531 v 6.8281 H 2.1249 v -13.875 h 4.4375 v 2.0312 c 0.67578,-0.8125 1.3906,-1.4102 2.1406,-1.7969 0.75,-0.38281 1.5781,-0.57812 2.4844,-0.57812 1.6016,0 2.8164,0.49609 3.6406,1.4844 0.83203,0.98047 1.25,2.4062 1.25,4.2812 z"
         id="path11056" />
    </symbol>
    <symbol
       id="m"
       overflow="visible">
      <path
         d="M 2.3281,-18.5 H 10.25 c 2.3516,0 4.1602,0.52734 5.4219,1.5781 1.2578,1.043 1.8906,2.5273 1.8906,4.4531 0,1.9492 -0.63281,3.4453 -1.8906,4.4844 -1.2617,1.043 -3.0703,1.5625 -5.4219,1.5625 H 7.0938 V 0 H 2.3282 Z m 4.7656,3.4531 v 5.1719 h 2.6406 c 0.92578,0 1.6406,-0.22266 2.1406,-0.67188 0.50781,-0.44531 0.76562,-1.0859 0.76562,-1.9219 0,-0.82031 -0.25781,-1.457 -0.76562,-1.9062 -0.5,-0.44531 -1.2148,-0.67188 -2.1406,-0.67188 z"
         id="path11059" />
    </symbol>
    <symbol
       id="l"
       overflow="visible">
      <path
         d="M 2.125,-13.875 H 6.5625 V -0.25 C 6.5625,1.6133 6.11328,3.0312 5.2187,4 4.33198,4.97656 3.039,5.4688 1.3437,5.4688 H -0.8438 V 2.5626 h 0.76562 c 0.84375,0 1.4219,-0.19531 1.7344,-0.57812 0.3125,-0.375 0.46875,-1.1211 0.46875,-2.2344 z m 0,-5.4062 h 4.4375 v 3.625 H 2.125 Z"
         id="path11062" />
    </symbol>
    <clipPath
       clipPathUnits="userSpaceOnUse"
       id="clipPath11351">
      <rect
         style="fill:none;stroke-width:0.663416"
         id="rect11353"
         width="461.09637"
         height="545.88855"
         x="127.4978"
         y="7.4270563" />
    </clipPath>
  </defs>
  <g
     id="g11161"
     clip-path="url(#clipPath11351)"
     transform="translate(-127.4978,-11.535)">
    <path
       d="m 131.33,417.66 h 450.64 v 48.828 H 131.33 Z"
       id="path11067" />
    <path
       d="m 193.29,382.71 h 326.63 c 33.398,0 60.453,-27.074 60.453,-60.461 v -161.26 c 0,-33.391 -27.059,-60.465 -60.453,-60.465 H 453.44 V 76.547 c 0,-36.457 -37.188,-65.012 -84.668,-65.012 h -29.539 c -47.48,0 -84.676,28.555 -84.676,65.012 v 23.977 h -61.266 c -33.391,0 -60.461,27.074 -60.461,60.465 v 161.26 c 0,33.391 27.066,60.461 60.461,60.461 z M 300.24,76.55 c 0,-7.6992 15.551,-19.332 38.996,-19.332 h 29.539 c 23.438,0 38.988,11.633 38.988,19.332 v 23.977 h -107.52 z"
       id="path11069" />
    <path
       d="m 291.82,514.47 c 0,16.895 -13.699,30.59 -30.594,30.59 -16.895,0 -30.59,-13.695 -30.59,-30.59 0,-16.895 13.695,-30.59 30.59,-30.59 16.895,0 30.594,13.695 30.594,30.59"
       id="path11071" />
    <path
       d="m 388.84,514.47 c 0,16.898 -13.699,30.594 -30.598,30.594 -16.895,0 -30.594,-13.695 -30.594,-30.594 0,-16.898 13.699,-30.594 30.594,-30.594 16.898,0 30.598,13.695 30.598,30.594"
       id="path11073" />
    <path
       d="m 485.86,514.47 c 0,16.898 -13.695,30.594 -30.594,30.594 -16.899,0 -30.594,-13.695 -30.594,-30.594 0,-16.898 13.695,-30.594 30.594,-30.594 16.899,0 30.594,13.695 30.594,30.594"
       id="path11075" />
    <path
       d="m 582.88,514.47 c 0,16.898 -13.699,30.594 -30.594,30.594 -16.898,0 -30.598,-13.695 -30.598,-30.594 0,-16.898 13.699,-30.594 30.598,-30.594 16.895,0 30.594,13.695 30.594,30.594"
       id="path11077" />
    <path
       d="m 197.02,514.47 c 0,16.898 -13.699,30.594 -30.594,30.594 -16.898,0 -30.598,-13.695 -30.598,-30.594 0,-16.898 13.699,-30.594 30.598,-30.594 16.895,0 30.594,13.695 30.594,30.594"
       id="path11079" />
    <use
       x="72.117188"
       y="636.13281"
       xlink:href="#v"
       id="use11081"
       width="100%"
       height="100%" />
    <use
       x="90.742188"
       y="636.13281"
       xlink:href="#c"
       id="use11083"
       width="100%"
       height="100%" />
    <use
       x="103.25781"
       y="636.13281"
       xlink:href="#a"
       id="use11085"
       width="100%"
       height="100%" />
    <use
       x="120.46875"
       y="636.13281"
       xlink:href="#k"
       id="use11087"
       width="100%"
       height="100%" />
    <use
       x="137.59375"
       y="636.13281"
       xlink:href="#b"
       id="use11089"
       width="100%"
       height="100%" />
    <use
       x="149.72266"
       y="636.13281"
       xlink:href="#a"
       id="use11091"
       width="100%"
       height="100%" />
    <use
       x="166.93359"
       y="636.13281"
       xlink:href="#f"
       id="use11093"
       width="100%"
       height="100%" />
    <use
       x="193.9375"
       y="636.13281"
       xlink:href="#j"
       id="use11095"
       width="100%"
       height="100%" />
    <use
       x="212.10156"
       y="636.13281"
       xlink:href="#i"
       id="use11097"
       width="100%"
       height="100%" />
    <use
       x="237.48047"
       y="636.13281"
       xlink:href="#e"
       id="use11099"
       width="100%"
       height="100%" />
    <use
       x="252.52344"
       y="636.13281"
       xlink:href="#d"
       id="use11101"
       width="100%"
       height="100%" />
    <use
       x="269.95703"
       y="636.13281"
       xlink:href="#c"
       id="use11103"
       width="100%"
       height="100%" />
    <use
       x="282.47266"
       y="636.13281"
       xlink:href="#u"
       id="use11105"
       width="100%"
       height="100%" />
    <use
       x="300.63672"
       y="636.13281"
       xlink:href="#h"
       id="use11107"
       width="100%"
       height="100%" />
    <use
       x="318.70312"
       y="636.13281"
       xlink:href="#t"
       id="use11109"
       width="100%"
       height="100%" />
    <use
       x="342.64453"
       y="636.13281"
       xlink:href="#f"
       id="use11111"
       width="100%"
       height="100%" />
    <use
       x="360.80859"
       y="636.13281"
       xlink:href="#a"
       id="use11113"
       width="100%"
       height="100%" />
    <use
       x="378.02344"
       y="636.13281"
       xlink:href="#s"
       id="use11115"
       width="100%"
       height="100%" />
    <use
       x="386.71875"
       y="636.13281"
       xlink:href="#g"
       id="use11117"
       width="100%"
       height="100%" />
    <use
       x="395.41797"
       y="636.13281"
       xlink:href="#e"
       id="use11119"
       width="100%"
       height="100%" />
    <use
       x="410.46094"
       y="636.13281"
       xlink:href="#b"
       id="use11121"
       width="100%"
       height="100%" />
    <use
       x="422.59375"
       y="636.13281"
       xlink:href="#g"
       id="use11123"
       width="100%"
       height="100%" />
    <use
       x="72.117188"
       y="661.51172"
       xlink:href="#r"
       id="use11125"
       width="100%"
       height="100%" />
    <use
       x="83.15625"
       y="661.51172"
       xlink:href="#c"
       id="use11127"
       width="100%"
       height="100%" />
    <use
       x="95.671875"
       y="661.51172"
       xlink:href="#d"
       id="use11129"
       width="100%"
       height="100%" />
    <use
       x="113.10547"
       y="661.51172"
       xlink:href="#q"
       id="use11131"
       width="100%"
       height="100%" />
    <use
       x="148.38672"
       y="661.51172"
       xlink:href="#b"
       id="use11133"
       width="100%"
       height="100%" />
    <use
       x="160.51562"
       y="661.51172"
       xlink:href="#p"
       id="use11135"
       width="100%"
       height="100%" />
    <use
       x="178.58203"
       y="661.51172"
       xlink:href="#a"
       id="use11137"
       width="100%"
       height="100%" />
    <use
       x="204.62891"
       y="661.51172"
       xlink:href="#o"
       id="use11139"
       width="100%"
       height="100%" />
    <use
       x="225.86719"
       y="661.51172"
       xlink:href="#d"
       id="use11141"
       width="100%"
       height="100%" />
    <use
       x="243.30469"
       y="661.51172"
       xlink:href="#h"
       id="use11143"
       width="100%"
       height="100%" />
    <use
       x="261.37109"
       y="661.51172"
       xlink:href="#n"
       id="use11145"
       width="100%"
       height="100%" />
    <use
       x="288.26953"
       y="661.51172"
       xlink:href="#m"
       id="use11147"
       width="100%"
       height="100%" />
    <use
       x="306.87109"
       y="661.51172"
       xlink:href="#c"
       id="use11149"
       width="100%"
       height="100%" />
    <use
       x="319.38672"
       y="661.51172"
       xlink:href="#d"
       id="use11151"
       width="100%"
       height="100%" />
    <use
       x="336.82031"
       y="661.51172"
       xlink:href="#l"
       id="use11153"
       width="100%"
       height="100%" />
    <use
       x="345.51953"
       y="661.51172"
       xlink:href="#a"
       id="use11155"
       width="100%"
       height="100%" />
    <use
       x="362.73047"
       y="661.51172"
       xlink:href="#e"
       id="use11157"
       width="100%"
       height="100%" />
    <use
       x="377.77344"
       y="661.51172"
       xlink:href="#b"
       id="use11159"
       width="100%"
       height="100%" />
  </g>
</svg>
