<?xml version="1.0" encoding="UTF-8" standalone="no"?>
<svg
   width="295.43042pt"
   height="360.77237pt"
   version="1.1"
   viewBox="0 0 295.43042 360.77237"
   id="svg701"
   sodipodi:docname="immigration.svg"
   inkscape:version="1.1.1 (3bf5ae0, 2021-09-20)"
   xmlns:inkscape="http://www.inkscape.org/namespaces/inkscape"
   xmlns:sodipodi="http://sodipodi.sourceforge.net/DTD/sodipodi-0.dtd"
   xmlns:xlink="http://www.w3.org/1999/xlink"
   xmlns="http://www.w3.org/2000/svg"
   xmlns:svg="http://www.w3.org/2000/svg">
  <sodipodi:namedview
     id="namedview703"
     pagecolor="#ffffff"
     bordercolor="#666666"
     borderopacity="1.0"
     inkscape:pageshadow="2"
     inkscape:pageopacity="0.0"
     inkscape:pagecheckerboard="0"
     inkscape:document-units="pt"
     showgrid="false"
     fit-margin-top="0"
     fit-margin-left="0"
     fit-margin-right="0"
     fit-margin-bottom="0"
     inkscape:zoom="0.72214286"
     inkscape:cx="180.71217"
     inkscape:cy="328.88229"
     inkscape:window-width="3440"
     inkscape:window-height="1343"
     inkscape:window-x="0"
     inkscape:window-y="0"
     inkscape:window-maximized="1"
     inkscape:current-layer="svg701" />
  <defs
     id="defs603">
    <symbol
       id="t"
       overflow="visible">
      <path
         d="m 14.656,-0.875 c -0.76172,0.39844 -1.5547,0.69531 -2.375,0.89062 -0.8125,0.19531 -1.6641,0.29688 -2.5469,0.29688 -2.6562,0 -4.7617,-0.73828 -6.3125,-2.2188 -1.5547,-1.4883 -2.3281,-3.5039 -2.3281,-6.0469 0,-2.5508 0.77344,-4.5664 2.3281,-6.0469 1.5508,-1.4883 3.6562,-2.2344 6.3125,-2.2344 0.88281,0 1.7344,0.10156 2.5469,0.29688 0.82031,0.19922 1.6133,0.49609 2.375,0.89062 v 3.2969 c -0.76172,-0.51953 -1.5117,-0.89844 -2.25,-1.1406 -0.74219,-0.23828 -1.5234,-0.35938 -2.3438,-0.35938 -1.4688,0 -2.625,0.46875 -3.4688,1.4062 -0.83594,0.9375 -1.25,2.2344 -1.25,3.8906 0,1.6484 0.41406,2.9375 1.25,3.875 0.84375,0.9375 2,1.4062 3.4688,1.4062 0.82031,0 1.6016,-0.11719 2.3438,-0.35938 0.73828,-0.23828 1.4883,-0.61719 2.25,-1.1406 z"
         id="path543" />
    </symbol>
    <symbol
       id="b"
       overflow="visible">
      <path
         d="m 10.719,-8.7031 c -0.33594,-0.15625 -0.66797,-0.26953 -1,-0.34375 -0.32422,-0.082031 -0.65625,-0.125 -1,-0.125 -0.98047,0 -1.7344,0.32031 -2.2656,0.95312 -0.53125,0.625 -0.79688,1.5273 -0.79688,2.7031 V -3e-5 h -3.8125 v -11.969 h 3.8125 v 1.9688 c 0.48828,-0.78125 1.0508,-1.3477 1.6875,-1.7031 0.64453,-0.36328 1.4102,-0.54688 2.2969,-0.54688 0.13281,0 0.27344,0.0078 0.42188,0.01563 0.14453,0.01172 0.36328,0.03125 0.65625,0.0625 z"
         id="path546" />
    </symbol>
    <symbol
       id="a"
       overflow="visible">
      <path
         d="m 13.781,-6.0156 v 1.0938 H 4.8435 c 0.09375,0.89844 0.41406,1.5703 0.96875,2.0156 0.55078,0.44922 1.3281,0.67188 2.3281,0.67188 0.80078,0 1.625,-0.11719 2.4688,-0.35938 0.84375,-0.23828 1.7109,-0.59766 2.6094,-1.0781 v 2.9531 c -0.90625,0.33594 -1.8125,0.58984 -2.7188,0.76562 -0.9063,0.17578 -1.8125,0.26562 -2.7188,0.26562 -2.1562,0 -3.8398,-0.54688 -5.0469,-1.6406 -1.1992,-1.1016 -1.7969,-2.6484 -1.7969,-4.6406 0,-1.9453 0.58594,-3.4766 1.7656,-4.5938 1.1758,-1.125 2.8008,-1.6875 4.875,-1.6875 1.875,0 3.375,0.57031 4.5,1.7031 1.1328,1.125 1.7031,2.6367 1.7031,4.5312 z M 9.8435,-7.2812 c 0,-0.72656 -0.21484,-1.3125 -0.64062,-1.75 -0.41797,-0.44531 -0.96875,-0.67188 -1.6562,-0.67188 -0.74219,0 -1.3438,0.21094 -1.8125,0.625 -0.46094,0.41797 -0.74609,1.0156 -0.85938,1.7969 z"
         id="path549" />
    </symbol>
    <symbol
       id="f"
       overflow="visible">
      <path
         d="m 7.2031,-5.3906 c -0.80469,0 -1.4062,0.13672 -1.8125,0.40625 -0.39844,0.27344 -0.59375,0.67188 -0.59375,1.2031 0,0.48047 0.16016,0.85938 0.48438,1.1406 0.32031,0.27344 0.77344,0.40625 1.3594,0.40625 0.71875,0 1.3203,-0.25391 1.8125,-0.76562 0.48828,-0.51953 0.73438,-1.1719 0.73438,-1.9531 v -0.4375 z m 5.8438,-1.4375 V 0 H 9.1875 v -1.7656 c -0.51172,0.71875 -1.0898,1.2461 -1.7344,1.5781 -0.63672,0.33203 -1.418,0.5 -2.3438,0.5 -1.2422,0 -2.2461,-0.35938 -3.0156,-1.0781 -0.77344,-0.72656 -1.1562,-1.6719 -1.1562,-2.8281 0,-1.3945 0.47656,-2.4219 1.4375,-3.0781 0.96875,-0.65625 2.4883,-0.98438 4.5625,-0.98438 h 2.25 v -0.29688 c 0,-0.60156 -0.24219,-1.0469 -0.71875,-1.3281 -0.48047,-0.28125 -1.2266,-0.42188 -2.2344,-0.42188 -0.8125,0 -1.5742,0.085937 -2.2812,0.25 -0.71094,0.15625 -1.3672,0.40234 -1.9688,0.73438 v -2.9219 c 0.82031,-0.19531 1.6445,-0.34766 2.4688,-0.45312 0.82031,-0.10156 1.6484,-0.15625 2.4844,-0.15625 2.1562,0 3.7109,0.42969 4.6719,1.2812 0.95703,0.84375 1.4375,2.2266 1.4375,4.1406 z"
         id="path552" />
    </symbol>
    <symbol
       id="c"
       overflow="visible">
      <path
         d="m 6.0156,-15.359 v 3.3906 H 9.9531 V -9.234 H 6.0156 v 5.0781 c 0,0.55469 0.10938,0.92969 0.32812,1.125 0.21875,0.19922 0.65625,0.29688 1.3125,0.29688 h 1.9688 v 2.7344 h -3.2812 c -1.5117,0 -2.5859,-0.3125 -3.2188,-0.9375 -0.625,-0.63281 -0.9375,-1.707 -0.9375,-3.2188 v -5.0781 h -1.9062 v -2.7344 h 1.9062 v -3.3906 z"
         id="path555" />
    </symbol>
    <symbol
       id="j"
       overflow="visible">
      <path
         d="m 9.9688,-10.219 v -6.4062 h 3.8594 V -2e-4 H 9.9688 V -1.7346 C 9.44536,-1.02366 8.8672,-0.5041 8.2344,-0.1721 7.59768,0.14821 6.8633,0.31228 6.0313,0.31228 c -1.4688,0 -2.6797,-0.58203 -3.625,-1.75 -0.94922,-1.1758 -1.4219,-2.6875 -1.4219,-4.5312 0,-1.8437 0.47266,-3.3477 1.4219,-4.5156 0.94531,-1.1758 2.1562,-1.7656 3.625,-1.7656 0.83203,0 1.5664,0.16797 2.2031,0.5 0.63281,0.32422 1.2109,0.83594 1.7344,1.5312 z m -2.5156,7.75 c 0.82031,0 1.4453,-0.29688 1.875,-0.89062 0.42578,-0.60156 0.64062,-1.4727 0.64062,-2.6094 0,-1.1445 -0.21484,-2.0156 -0.64062,-2.6094 -0.42969,-0.59375 -1.0547,-0.89062 -1.875,-0.89062 -0.8125,0 -1.4336,0.29688 -1.8594,0.89062 -0.42969,0.59375 -0.64062,1.4648 -0.64062,2.6094 0,1.1367 0.21094,2.0078 0.64062,2.6094 0.42578,0.59375 1.0469,0.89062 1.8594,0.89062 z"
         id="path558" />
    </symbol>
    <symbol
       id="i"
       overflow="visible">
      <path
         d="m 8.2031,-2.4688 c 0.82031,0 1.4453,-0.29688 1.875,-0.89062 0.42578,-0.60156 0.64062,-1.4727 0.64062,-2.6094 0,-1.1445 -0.21484,-2.0156 -0.64062,-2.6094 -0.42969,-0.59375 -1.0547,-0.89062 -1.875,-0.89062 -0.82422,0 -1.4531,0.30469 -1.8906,0.90625 -0.4375,0.59375 -0.65625,1.4609 -0.65625,2.5938 0,1.1367 0.21875,2.0078 0.65625,2.6094 0.4375,0.59375 1.0664,0.89062 1.8906,0.89062 z m -2.5469,-7.75 c 0.53125,-0.69531 1.1133,-1.207 1.75,-1.5312 0.64453,-0.33203 1.3828,-0.5 2.2188,-0.5 1.4688,0 2.6758,0.58984 3.625,1.7656 0.94531,1.168 1.4219,2.6719 1.4219,4.5156 0,1.8437 -0.47656,3.3555 -1.4219,4.5312 -0.94922,1.168 -2.1562,1.75 -3.625,1.75 -0.83594,0 -1.5742,-0.16797 -2.2188,-0.5 -0.63672,-0.33203 -1.2188,-0.84766 -1.75,-1.5469 V -1e-4 H 1.8437 v -16.625 h 3.8125 z"
         id="path561" />
    </symbol>
    <symbol
       id="e"
       overflow="visible">
      <path
         d="m 0.26562,-11.969 h 3.8281 l 3.2188,8.125 2.7344,-8.125 h 3.8125 L 8.82822,1.125 c -0.5,1.332 -1.0898,2.2656 -1.7656,2.7969 -0.66797,0.53125 -1.5547,0.79688 -2.6562,0.79688 h -2.2188 v -2.5 h 1.2031 c 0.64453,0 1.1133,-0.10547 1.4062,-0.3125 C 5.0977,1.69534 5.32817,1.32816 5.48442,0.79688 L 5.5938,0.45313 Z"
         id="path564" />
    </symbol>
    <symbol
       id="h"
       overflow="visible">
      <path
         d="M 11.688,-2.9062 H 5.2505 L 4.2349,0 h -4.125 l 5.9062,-15.953 h 4.9062 L 16.8285,0 H 12.6879 Z M 6.2818,-5.8593 h 4.375 l -2.1875,-6.3438 z"
         id="path567" />
    </symbol>
    <symbol
       id="g"
       overflow="visible">
      <path
         d="m 2.0156,-15.953 h 6.8125 c 2.0312,0 3.5859,0.45312 4.6719,1.3594 1.0938,0.89844 1.6406,2.1797 1.6406,3.8438 0,1.6797 -0.54688,2.9688 -1.6406,3.875 -1.0859,0.89844 -2.6406,1.3438 -4.6719,1.3438 H 6.125 V 2e-4 H 2.0156 Z m 4.1094,2.9844 v 4.4531 h 2.2656 c 0.80078,0 1.4141,-0.19141 1.8438,-0.57812 0.4375,-0.38281 0.65625,-0.9375 0.65625,-1.6562 0,-0.70703 -0.21875,-1.2539 -0.65625,-1.6406 -0.42969,-0.38281 -1.043,-0.57812 -1.8438,-0.57812 z"
         id="path570" />
    </symbol>
    <symbol
       id="s"
       overflow="visible">
      <path
         d="m 11.188,-11.594 v 2.9062 c -0.82422,-0.34375 -1.6172,-0.59766 -2.375,-0.76562 -0.76172,-0.16406 -1.4805,-0.25 -2.1562,-0.25 -0.73047,0 -1.2734,0.089844 -1.625,0.26562 -0.35547,0.17969 -0.53125,0.46094 -0.53125,0.84375 0,0.30469 0.13281,0.53906 0.40625,0.70312 0.26953,0.16797 0.75,0.28906 1.4375,0.35938 l 0.67188,0.09375 c 1.957,0.25 3.2734,0.66406 3.9531,1.2344 0.67578,0.57422 1.0156,1.4648 1.0156,2.6719 0,1.2812 -0.46875,2.2461 -1.4062,2.8906 -0.9375,0.63672 -2.3438,0.95312 -4.2188,0.95312 -0.78125,0 -1.5938,-0.0625 -2.4375,-0.1875 -0.8437,-0.125 -1.7148,-0.3125 -2.6094,-0.5625 v -2.9062 c 0.75781,0.375 1.5391,0.65625 2.3438,0.84375 0.80078,0.17969 1.6133,0.26562 2.4375,0.26562 0.75,0 1.3125,-0.10156 1.6875,-0.3125 0.38281,-0.20703 0.57812,-0.50781 0.57812,-0.90625 0,-0.34375 -0.13281,-0.59766 -0.39062,-0.76562 C 7.70756,-4.38304 7.18803,-4.51586 6.40678,-4.6096 L 5.7349,-4.70335 C 4.0357,-4.91038 2.8443,-5.30101 2.1568,-5.87525 1.4693,-6.45728 1.1256,-7.33615 1.1256,-8.51585 c 0,-1.2695 0.42969,-2.207 1.2969,-2.8125 0.875,-0.61328 2.2109,-0.92188 4.0156,-0.92188 0.69531,0 1.4297,0.05469 2.2031,0.15625 0.78125,0.10547 1.6289,0.27344 2.5469,0.5 z"
         id="path573" />
    </symbol>
    <symbol
       id="d"
       overflow="visible">
      <path
         d="m 7.5312,-9.5156 c -0.84375,0 -1.4922,0.30859 -1.9375,0.92188 -0.44922,0.60547 -0.67188,1.4805 -0.67188,2.625 0,1.1484 0.22266,2.0273 0.67188,2.6406 0.44531,0.60547 1.0938,0.90625 1.9375,0.90625 0.83203,0 1.4688,-0.30078 1.9062,-0.90625 0.44531,-0.61328 0.67188,-1.4922 0.67188,-2.6406 0,-1.1445 -0.22656,-2.0195 -0.67188,-2.625 C 8.9999,-9.207 8.3632,-9.5156 7.5312,-9.5156 Z m 0,-2.7344 c 2.0508,0 3.6562,0.55859 4.8125,1.6719 1.1641,1.1055 1.75,2.6406 1.75,4.6094 0,1.9688 -0.58594,3.5117 -1.75,4.625 -1.1562,1.1055 -2.7617,1.6562 -4.8125,1.6562 -2.0625,0 -3.6797,-0.55078 -4.8438,-1.6562 -1.168,-1.1133 -1.75,-2.6562 -1.75,-4.625 0,-1.9688 0.58203,-3.5039 1.75,-4.6094 1.1641,-1.1133 2.7812,-1.6719 4.8438,-1.6719 z"
         id="path576" />
    </symbol>
    <symbol
       id="r"
       overflow="visible">
      <path
         d="m 9.7031,-16.625 v 2.5156 H 7.5937 c -0.54297,0 -0.92188,0.10156 -1.1406,0.29688 -0.21094,0.19922 -0.3125,0.53906 -0.3125,1.0156 v 0.82812 h 3.2656 v 2.7344 H 6.1406 V 0 H 2.3125 V -9.2344 H 0.4219 v -2.7344 h 1.8906 v -0.82812 c 0,-1.3008 0.36328,-2.2656 1.0938,-2.8906 0.72656,-0.625 1.8516,-0.9375 3.375,-0.9375 z"
         id="path579" />
    </symbol>
    <symbol
       id="q"
       overflow="visible">
      <path
         d="m 12.922,-9.9688 c 0.48828,-0.75 1.0625,-1.3164 1.7188,-1.7031 0.66406,-0.38281 1.3984,-0.57812 2.2031,-0.57812 1.375,0 2.4219,0.42969 3.1406,1.2812 0.71875,0.84375 1.0781,2.0742 1.0781,3.6875 v 7.2812 h -3.8438 v -6.2344 c 0.0078,-0.09375 0.01563,-0.1875 0.01563,-0.28125 v -0.4375 c 0,-0.84375 -0.125,-1.457 -0.375,-1.8438 -0.25,-0.38281 -0.65234,-0.57812 -1.2031,-0.57812 -0.73047,0 -1.293,0.30469 -1.6875,0.90625 -0.38672,0.59375 -0.58984,1.4609 -0.60938,2.5938 v 5.875 h -3.8438 v -6.2344 c 0,-1.3203 -0.11719,-2.1758 -0.34375,-2.5625 -0.23047,-0.38281 -0.63672,-0.57812 -1.2188,-0.57812 -0.73047,0 -1.2969,0.30469 -1.7031,0.90625 -0.39844,0.60547 -0.59375,1.4648 -0.59375,2.5781 v 5.8906 h -3.8438 v -11.969 h 3.8438 v 1.75 c 0.46875,-0.66406 1.0039,-1.1719 1.6094,-1.5156 0.61328,-0.34375 1.2891,-0.51562 2.0312,-0.51562 0.82031,0 1.5508,0.19922 2.1875,0.59375 0.63281,0.39844 1.1133,0.96094 1.4375,1.6875 z"
         id="path582" />
    </symbol>
    <symbol
       id="p"
       overflow="visible">
      <path
         d="M 13.859,-7.2812 V 0 h -3.8438 v -5.5469 c 0,-1.0508 -0.027344,-1.7695 -0.078125,-2.1562 -0.042969,-0.39453 -0.12109,-0.6875 -0.23438,-0.875 -0.14844,-0.25 -0.35156,-0.44141 -0.60938,-0.57812 -0.25,-0.14453 -0.54297,-0.21875 -0.875,-0.21875 -0.79297,0 -1.418,0.3125 -1.875,0.9375 -0.46094,0.61719 -0.6875,1.4648 -0.6875,2.5469 V 3e-5 h -3.8125 v -16.625 h 3.8125 v 6.4062 c 0.58203,-0.69531 1.1953,-1.207 1.8438,-1.5312 0.64453,-0.33203 1.3594,-0.5 2.1406,-0.5 1.3828,0 2.4297,0.42969 3.1406,1.2812 0.71875,0.84375 1.0781,2.0742 1.0781,3.6875 z"
         id="path585" />
    </symbol>
    <symbol
       id="o"
       overflow="visible">
      <path
         d="m 2.0156,-15.953 h 4.5781 l 5.8125,10.938 v -10.938 h 3.8906 V 0 H 11.703 L 5.9061,-10.938 V 0 H 2.0155 Z"
         id="path588" />
    </symbol>
    <symbol
       id="n"
       overflow="visible">
      <path
         d="m 1.7031,-4.6562 v -7.3125 h 3.8438 v 1.2031 c 0,0.64844 -0.00781,1.4609 -0.015625,2.4375 v 1.9688 c 0,0.96094 0.023438,1.6523 0.078125,2.0781 0.050781,0.41797 0.13281,0.72656 0.25,0.92188 0.15625,0.25 0.35938,0.44531 0.60938,0.57812 0.25781,0.13672 0.55078,0.20312 0.875,0.20312 0.80078,0 1.4258,-0.30469 1.875,-0.92188 0.45703,-0.61328 0.6875,-1.4688 0.6875,-2.5625 v -5.9062 h 3.8281 v 11.969 h -3.8281 v -1.7344 c -0.57422,0.69922 -1.1836,1.2148 -1.8281,1.5469 -0.64844,0.33203 -1.3555,0.5 -2.125,0.5 -1.3867,0 -2.4453,-0.42188 -3.1719,-1.2656 -0.71875,-0.85156 -1.0781,-2.0859 -1.0781,-3.7031 z"
         id="path591" />
    </symbol>
    <symbol
       id="m"
       overflow="visible">
      <path
         d="M 13.859,-7.2812 V 0 h -3.8438 v -5.5781 c 0,-1.0312 -0.027344,-1.7383 -0.078125,-2.125 -0.042969,-0.39453 -0.12109,-0.6875 -0.23438,-0.875 -0.14844,-0.25 -0.35156,-0.44141 -0.60938,-0.57812 -0.25,-0.14453 -0.54297,-0.21875 -0.875,-0.21875 -0.79297,0 -1.418,0.3125 -1.875,0.9375 -0.46094,0.61719 -0.6875,1.4648 -0.6875,2.5469 V 3e-5 h -3.8125 v -11.969 h 3.8125 v 1.75 c 0.58203,-0.69531 1.1953,-1.207 1.8438,-1.5312 0.64453,-0.33203 1.3594,-0.5 2.1406,-0.5 1.3828,0 2.4297,0.42969 3.1406,1.2812 0.71875,0.84375 1.0781,2.0742 1.0781,3.6875 z"
         id="path594" />
    </symbol>
    <symbol
       id="l"
       overflow="visible">
      <path
         d="m 1.8438,-11.969 h 3.8125 v 11.75 c 0,1.6016 -0.38672,2.8281 -1.1562,3.6719 C 3.73838,4.29665 2.629,4.7185 1.172,4.7185 h -1.8906 v -2.5 h 0.65625 c 0.72656,0 1.2266,-0.16797 1.5,-0.5 C 1.70718,1.39428 1.8439,0.74975 1.8439,-0.219 Z m 0,-4.6562 h 3.8125 v 3.125 H 1.8438 Z"
         id="path597" />
    </symbol>
    <symbol
       id="k"
       overflow="visible">
      <path
         d="m 11.5,-11.594 v 3.125 C 10.97656,-8.82056 10.457,-9.08228 9.9375,-9.25025 9.41406,-9.42603 8.875,-9.51587 8.3125,-9.51587 c -1.0742,0 -1.9062,0.3125 -2.5,0.9375 -0.5938,0.625 -0.89062,1.4961 -0.89062,2.6094 0,1.1172 0.29688,1.9844 0.89062,2.6094 0.59374,0.625 1.4258,0.9375 2.5,0.9375 0.59375,0 1.1562,-0.085937 1.6875,-0.26562 0.53906,-0.17578 1.0391,-0.44141 1.5,-0.79688 v 3.125 c -0.59375,0.23047 -1.1992,0.39453 -1.8125,0.5 -0.61719,0.11328 -1.2344,0.17188 -1.8594,0.17188 -2.1562,0 -3.8438,-0.55078 -5.0625,-1.6562 -1.2188,-1.1133 -1.8281,-2.6562 -1.8281,-4.625 0,-1.9688 0.60938,-3.5039 1.8281,-4.6094 1.2188,-1.1133 2.9062,-1.6719 5.0625,-1.6719 0.625,0 1.2383,0.05859 1.8438,0.17188 0.61328,0.10547 1.2227,0.26562 1.8281,0.48438 z"
         id="path600" />
    </symbol>
    <clipPath
       clipPathUnits="userSpaceOnUse"
       id="clipPath969">
      <rect
         style="fill:none;stroke-width:0.75"
         id="rect971"
         width="301.18695"
         height="365.57867"
         x="213.94659"
         y="98.664688" />
    </clipPath>
  </defs>
  <g
     id="g699"
     clip-path="url(#clipPath969)"
     transform="translate(-213.94659,-103.471)">
    <path
       d="m 355.21,217.04 c -1.707,-0.17578 -3.457,-0.26172 -5.207,-0.26172 -1.75,0 -3.5,0.0859 -5.207,0.26172 -3.9805,2.1016 -12.293,17.852 -13.211,46.07 h 36.926 c -0.96484,-28.219 -9.3203,-43.969 -13.301,-46.07 z"
       id="path605" />
    <path
       d="m 400.36,278.55 h -16.711 c -0.78906,11.988 -2.8867,23.539 -6.3008,33.031 11.637,-7.3477 20.125,-19.117 23.012,-33.031 z"
       id="path607" />
    <path
       d="m 344.79,319.29 c 1.707,0.17578 3.457,0.26172 5.207,0.26172 1.75,0 3.5,-0.0859 5.207,-0.26172 3.7188,-1.9688 11.242,-15.883 12.949,-40.73 h -36.355 c 1.75,24.848 9.2734,38.762 12.992,40.73 z"
       id="path609" />
    <path
       d="m 299.64,278.55 c 2.8438,13.867 11.375,25.68 22.969,33.031 -3.4141,-9.4922 -5.5117,-21.043 -6.3008,-33.031 z"
       id="path611" />
    <path
       d="m 401.14,263.11 c -1.5742,-16.188 -10.719,-30.102 -23.801,-38.367 3.8945,10.938 6.125,24.5 6.5625,38.367 z"
       id="path613" />
    <path
       d="m 322.66,224.74 c -13.082,8.2695 -22.18,22.227 -23.801,38.367 h 17.238 c 0.4375,-13.867 2.625,-27.473 6.5625,-38.367 z"
       id="path615" />
    <path
       d="m 471.01,131.29 c -21.133,0 -38.367,17.195 -38.367,38.367 0,21.176 17.195,38.367 38.367,38.367 21.133,0 38.367,-17.195 38.367,-38.367 0.004,-21.172 -17.234,-38.367 -38.367,-38.367 z m 23.758,32.156 -27.125,25.199 c -2.582,2.4062 -6.6484,2.2305 -8.9688,-0.4375 l -11.898,-13.344 c -2.3203,-2.582 -2.1016,-6.5625 0.52344,-8.8828 l 3.6758,-3.2812 c 2.582,-2.3203 6.5625,-2.1016 8.8828,0.52344 2.3633,2.625 6.3867,2.8438 8.9688,0.4375 l 14,-13.039 c 2.5391,-2.3633 6.5195,-2.2305 8.8828,0.30469 l 3.3242,3.5859 c 2.4453,2.5898 2.3164,6.5703 -0.26562,8.9336 z"
       id="path617" />
    <path
       d="m 453.91,116.51 v -13.039 l -217.96,23.406 h 199.24 c 5.4648,-4.5938 11.809,-8.1367 18.723,-10.367 z"
       id="path619" />
    <path
       d="m 415.14,169.66 c 0,-12.336 4.0703,-23.711 10.852,-32.945 h -199.72 c -4.2891,0 -7.7422,3.457 -7.7422,7.7422 v 304.41 c 0,4.2891 3.457,7.7422 7.7422,7.7422 h 247.45 c 4.2891,0 7.7422,-3.457 7.7422,-7.7422 l 0.004,-224.39 c -3.4141,0.65625 -6.8672,1.0078 -10.457,1.0078 -30.801,0 -55.867,-25.027 -55.867,-55.824 z m -132,98.48 c 0,-33.949 25.461,-61.992 58.273,-66.238 1.3555,-0.35156 2.7578,-0.61328 4.2422,-0.61328 0.48047,0 1.0078,0.043 1.4453,0.13281 0.96094,-0.043 1.9258,-0.13281 2.9297,-0.13281 1.0078,0 1.9258,0.0859 2.9297,0.13281 0.48047,-0.0859 0.96094,-0.13281 1.4453,-0.13281 1.4883,0 2.8438,0.26172 4.2422,0.61328 32.812,4.2422 58.273,32.289 58.273,66.238 0,0.61328 -0.0859,1.1797 -0.0859,1.793 0.043,0.30469 0.0859,0.57031 0.0859,0.875 0,0.61328 -0.0859,1.2266 -0.21875,1.793 -2.1016,31.895 -26.688,57.707 -58.012,61.773 -1.3555,0.35156 -2.7578,0.61328 -4.2422,0.61328 -0.48047,0 -1.0078,-0.043 -1.4453,-0.13281 -0.96094,0.043 -1.9258,0.13281 -2.9297,0.13281 -1.0078,0 -1.9258,-0.0859 -2.9297,-0.13281 -0.48047,0.0859 -0.96094,0.13281 -1.4453,0.13281 -1.4883,0 -2.8438,-0.26172 -4.2422,-0.61328 -31.367,-4.0703 -55.914,-29.883 -58.012,-61.773 -0.13281,-0.57031 -0.21875,-1.1797 -0.21875,-1.793 0,-0.30469 0.043,-0.61328 0.0859,-0.875 -0.082,-0.61328 -0.17187,-1.1797 -0.17187,-1.793 z m 79.977,113.57 h -87.062 c -4.2891,0 -7.7422,-3.457 -7.7422,-7.7422 0,-4.2891 3.457,-7.7422 7.7422,-7.7422 l 87.062,-0.004 c 4.2891,0 7.7422,3.457 7.7422,7.7422 0,4.2891 -3.4531,7.7461 -7.7422,7.7461 z m 61.336,0 h -29.926 c -4.2891,0 -7.7422,-3.457 -7.7422,-7.7422 0,-4.2891 3.457,-7.7422 7.7422,-7.7422 h 29.926 c 4.2891,0 7.7422,3.457 7.7422,7.7422 0.004,4.2852 -3.4961,7.7422 -7.7422,7.7422 z"
       id="path621" />
    <use
       x="70"
       y="625.625"
       xlink:href="#t"
       id="use623"
       width="100%"
       height="100%" />
    <use
       x="86.054688"
       y="625.625"
       xlink:href="#b"
       id="use625"
       width="100%"
       height="100%" />
    <use
       x="96.839844"
       y="625.625"
       xlink:href="#a"
       id="use627"
       width="100%"
       height="100%" />
    <use
       x="111.67969"
       y="625.625"
       xlink:href="#f"
       id="use629"
       width="100%"
       height="100%" />
    <use
       x="126.4375"
       y="625.625"
       xlink:href="#c"
       id="use631"
       width="100%"
       height="100%" />
    <use
       x="136.89453"
       y="625.625"
       xlink:href="#a"
       id="use633"
       width="100%"
       height="100%" />
    <use
       x="151.73047"
       y="625.625"
       xlink:href="#j"
       id="use635"
       width="100%"
       height="100%" />
    <use
       x="175.00781"
       y="625.625"
       xlink:href="#i"
       id="use637"
       width="100%"
       height="100%" />
    <use
       x="190.66406"
       y="625.625"
       xlink:href="#e"
       id="use639"
       width="100%"
       height="100%" />
    <use
       x="212.53906"
       y="625.625"
       xlink:href="#h"
       id="use641"
       width="100%"
       height="100%" />
    <use
       x="229.46875"
       y="625.625"
       xlink:href="#b"
       id="use643"
       width="100%"
       height="100%" />
    <use
       x="240.25781"
       y="625.625"
       xlink:href="#e"
       id="use645"
       width="100%"
       height="100%" />
    <use
       x="262.13281"
       y="625.625"
       xlink:href="#g"
       id="use647"
       width="100%"
       height="100%" />
    <use
       x="278.16406"
       y="625.625"
       xlink:href="#b"
       id="use649"
       width="100%"
       height="100%" />
    <use
       x="288.95312"
       y="625.625"
       xlink:href="#f"
       id="use651"
       width="100%"
       height="100%" />
    <use
       x="303.71484"
       y="625.625"
       xlink:href="#s"
       id="use653"
       width="100%"
       height="100%" />
    <use
       x="316.73438"
       y="625.625"
       xlink:href="#a"
       id="use655"
       width="100%"
       height="100%" />
    <use
       x="331.57031"
       y="625.625"
       xlink:href="#c"
       id="use657"
       width="100%"
       height="100%" />
    <use
       x="342.02734"
       y="625.625"
       xlink:href="#e"
       id="use659"
       width="100%"
       height="100%" />
    <use
       x="356.28516"
       y="625.625"
       xlink:href="#d"
       id="use661"
       width="100%"
       height="100%" />
    <use
       x="70"
       y="647.5"
       xlink:href="#r"
       id="use663"
       width="100%"
       height="100%" />
    <use
       x="79.515625"
       y="647.5"
       xlink:href="#b"
       id="use665"
       width="100%"
       height="100%" />
    <use
       x="90.304688"
       y="647.5"
       xlink:href="#d"
       id="use667"
       width="100%"
       height="100%" />
    <use
       x="105.33203"
       y="647.5"
       xlink:href="#q"
       id="use669"
       width="100%"
       height="100%" />
    <use
       x="135.74219"
       y="647.5"
       xlink:href="#c"
       id="use671"
       width="100%"
       height="100%" />
    <use
       x="146.19922"
       y="647.5"
       xlink:href="#p"
       id="use673"
       width="100%"
       height="100%" />
    <use
       x="161.77344"
       y="647.5"
       xlink:href="#a"
       id="use675"
       width="100%"
       height="100%" />
    <use
       x="184.22266"
       y="647.5"
       xlink:href="#o"
       id="use677"
       width="100%"
       height="100%" />
    <use
       x="202.53125"
       y="647.5"
       xlink:href="#d"
       id="use679"
       width="100%"
       height="100%" />
    <use
       x="217.55859"
       y="647.5"
       xlink:href="#n"
       id="use681"
       width="100%"
       height="100%" />
    <use
       x="233.13281"
       y="647.5"
       xlink:href="#m"
       id="use683"
       width="100%"
       height="100%" />
    <use
       x="256.32031"
       y="647.5"
       xlink:href="#g"
       id="use685"
       width="100%"
       height="100%" />
    <use
       x="272.35547"
       y="647.5"
       xlink:href="#b"
       id="use687"
       width="100%"
       height="100%" />
    <use
       x="283.14062"
       y="647.5"
       xlink:href="#d"
       id="use689"
       width="100%"
       height="100%" />
    <use
       x="298.17188"
       y="647.5"
       xlink:href="#l"
       id="use691"
       width="100%"
       height="100%" />
    <use
       x="305.66797"
       y="647.5"
       xlink:href="#a"
       id="use693"
       width="100%"
       height="100%" />
    <use
       x="320.50391"
       y="647.5"
       xlink:href="#k"
       id="use695"
       width="100%"
       height="100%" />
    <use
       x="333.47266"
       y="647.5"
       xlink:href="#c"
       id="use697"
       width="100%"
       height="100%" />
  </g>
</svg>
