<?xml version="1.0" encoding="UTF-8" standalone="no"?>
<svg
   width="576.79742pt"
   height="559.09802pt"
   version="1.1"
   viewBox="0 0 576.79742 559.09802"
   id="svg3460"
   sodipodi:docname="security.svg"
   inkscape:version="1.1.1 (3bf5ae0, 2021-09-20)"
   xmlns:inkscape="http://www.inkscape.org/namespaces/inkscape"
   xmlns:sodipodi="http://sodipodi.sourceforge.net/DTD/sodipodi-0.dtd"
   xmlns:xlink="http://www.w3.org/1999/xlink"
   xmlns="http://www.w3.org/2000/svg"
   xmlns:svg="http://www.w3.org/2000/svg">
  <sodipodi:namedview
     id="namedview3462"
     pagecolor="#ffffff"
     bordercolor="#666666"
     borderopacity="1.0"
     inkscape:pageshadow="2"
     inkscape:pageopacity="0.0"
     inkscape:pagecheckerboard="0"
     inkscape:document-units="pt"
     showgrid="false"
     inkscape:zoom="0.83464286"
     inkscape:cx="383.99658"
     inkscape:cy="465.46855"
     inkscape:window-width="3440"
     inkscape:window-height="1343"
     inkscape:window-x="0"
     inkscape:window-y="0"
     inkscape:window-maximized="1"
     inkscape:current-layer="svg3460" />
  <defs
     id="defs3364">
    <symbol
       id="u"
       overflow="visible">
      <path
         d="M 6.1719,-0.375 C 5.8594,-0.20703 5.52346,-0.08203 5.1719,0 4.82815,0.082031 4.46878,0.125 4.0938,0.125 c -1.1172,0 -2,-0.3125 -2.6562,-0.9375 -0.6562,-0.625 -0.98438,-1.4727 -0.98438,-2.5469 0,-1.0703 0.32812,-1.9219 0.98438,-2.5469 0.65626,-0.625 1.5391,-0.9375 2.6562,-0.9375 0.375,0 0.73438,0.042969 1.0781,0.125 0.35156,0.085938 0.6875,0.21094 1,0.375 v 1.3906 C 5.84768,-5.17195 5.53128,-5.33211 5.21878,-5.43758 4.91409,-5.53914 4.58597,-5.59383 4.2344,-5.59383 c -0.61719,0 -1.1016,0.20312 -1.4531,0.60938 -0.35547,0.39844 -0.53125,0.9375 -0.53125,1.625 0,0.69922 0.17578,1.2461 0.53125,1.6406 0.35156,0.39844 0.83594,0.59375 1.4531,0.59375 0.35156,0 0.67969,-0.050781 0.98438,-0.15625 0.3125,-0.10156 0.62891,-0.26562 0.95312,-0.48438 z"
         id="path3301" />
    </symbol>
    <symbol
       id="e"
       overflow="visible">
      <path
         d="M 4.5156,-3.6719 C 4.37888,-3.7344 4.23826,-3.78128 4.09372,-3.81252 3.957,-3.84377 3.81638,-3.859395 3.67184,-3.859395 c -0.40625,0 -0.72656,0.13672 -0.95312,0.40625 -0.21875,0.26172 -0.32812,0.63672 -0.32812,1.125 v 2.3281 H 0.7812 v -5.0469 h 1.6094 v 0.82812 c 0.20703,-0.32031 0.44141,-0.55469 0.70312,-0.70312 0.26953,-0.15625 0.59375,-0.23438 0.96875,-0.23438 h 0.17188 c 0.0625,0 0.15625,0.011719 0.28125,0.03125 z"
         id="path3304" />
    </symbol>
    <symbol
       id="b"
       overflow="visible">
      <path
         d="m 5.8125,-2.5312 v 0.45312 H 2.0469 c 0.03125,0.375 0.16016,0.66406 0.39062,0.85938 0.23828,0.1875 0.57031,0.28125 1,0.28125 0.33203,0 0.67578,-0.050781 1.0312,-0.15625 0.35156,-0.10156 0.71875,-0.25391 1.0938,-0.45312 v 1.2344 c -0.375,0.14844 -0.75781,0.25781 -1.1406,0.32812 -0.375,0.070312 -0.75781,0.10938 -1.1406,0.10938 -0.91797,0 -1.6328,-0.22656 -2.1406,-0.6875 -0.5,-0.46875 -0.75,-1.1172 -0.75,-1.9531 0,-0.82031 0.25,-1.4688 0.75,-1.9375 0.5,-0.4687 1.1797,-0.70312 2.0469,-0.70312 0.78906,0 1.4258,0.24219 1.9062,0.71875 0.47656,0.46875 0.71875,1.1055 0.71875,1.9062 z M 4.1563,-3.06245 c 0,-0.3125 -0.09375,-0.5625 -0.28125,-0.75 -0.17969,-0.1875 -0.40625,-0.28125 -0.6875,-0.28125 -0.3125,0 -0.57031,0.089844 -0.76562,0.26562 -0.19922,0.17969 -0.32031,0.43359 -0.35938,0.76562 z"
         id="path3307" />
    </symbol>
    <symbol
       id="d"
       overflow="visible">
      <path
         d="m 3.0312,-2.2656 c -0.33594,0 -0.58984,0.058594 -0.76562,0.17188 -0.16797,0.11719 -0.25,0.28125 -0.25,0.5 0,0.21094 0.066406,0.37109 0.20312,0.48438 0.14453,0.11719 0.33594,0.17188 0.57812,0.17188 0.30078,0 0.55469,-0.10938 0.76562,-0.32812 0.20703,-0.21875 0.3125,-0.48828 0.3125,-0.8125 v -0.1875 z M 5.5,-2.87498 V 2e-5 H 3.875 v -0.75 C 3.65625,-0.43748 3.41016,-0.21092 3.14062,-0.0781 2.86718,0.05471 2.53906,0.12502 2.15624,0.12502 1.6328,0.12502 1.20702,-0.02342 0.87504,-0.3281 0.55082,-0.62888 0.39066,-1.02341 0.39066,-1.5156 c 0,-0.59375 0.20312,-1.0234 0.60938,-1.2969 0.40625,-0.28125 1.0469,-0.42188 1.9219,-0.42188 h 0.95312 v -0.125 c 0,-0.25 -0.10547,-0.42969 -0.3125,-0.54688 -0.19922,-0.125 -0.51172,-0.1875 -0.9375,-0.1875 -0.34375,0 -0.66797,0.039062 -0.96875,0.10938 -0.29297,0.0625 -0.5625,0.16797 -0.8125,0.3125 v -1.2344 c 0.34375,-0.082031 0.6875,-0.14453 1.0312,-0.1875 0.35156,-0.039062 0.70312,-0.0625 1.0469,-0.0625 0.90625,0 1.5625,0.17969 1.9688,0.53125 0.40625,0.35547 0.60938,0.9375 0.60938,1.75 z"
         id="path3310" />
    </symbol>
    <symbol
       id="c"
       overflow="visible">
      <path
         d="m 2.5312,-6.4688 v 1.4219 h 1.6562 v 1.1562 H 2.5312 v 2.1406 c 0,0.23047 0.046875,0.38672 0.14062,0.46875 0.09375,0.085938 0.28125,0.125 0.5625,0.125 h 0.82812 v 1.1562 h -1.3906 c -0.63672,0 -1.0898,-0.12891 -1.3594,-0.39062 C 1.05072,-0.6603 0.92182,-1.11343 0.92182,-1.75017 v -2.1406 H 0.12494 v -1.1562 h 0.79688 v -1.4219 z"
         id="path3313" />
    </symbol>
    <symbol
       id="k"
       overflow="visible">
      <path
         d="M 4.2031,-4.2969 V -7 h 1.625 V 0 H 4.2031 V -0.73438 C 3.98435,-0.42969 3.73826,-0.21094 3.46872,-0.07813 3.19528,0.05468 2.8906,0.12499 2.54684,0.12499 c -0.625,0 -1.1367,-0.24219 -1.5312,-0.73438 -0.39844,-0.48828 -0.59375,-1.125 -0.59375,-1.9062 0,-0.7812 0.19531,-1.4141 0.59375,-1.9062 0.39453,-0.48828 0.90625,-0.73438 1.5312,-0.73438 0.34375,0 0.64844,0.070312 0.92188,0.20312 0.26953,0.13672 0.51562,0.35547 0.73438,0.65625 z m -1.0625,3.25 c 0.34375,0 0.60156,-0.125 0.78125,-0.375 0.1875,-0.25 0.28125,-0.61328 0.28125,-1.0938 0,-0.47656 -0.09375,-0.84375 -0.28125,-1.0938 -0.17969,-0.25781 -0.4375,-0.39062 -0.78125,-0.39062 -0.34375,0 -0.60938,0.13281 -0.79688,0.39062 -0.17969,0.25 -0.26562,0.61719 -0.26562,1.0938 0,0.48047 0.085937,0.84375 0.26562,1.0938 0.1875,0.25 0.45312,0.375 0.79688,0.375 z"
         id="path3316" />
    </symbol>
    <symbol
       id="j"
       overflow="visible">
      <path
         d="m 3.4531,-1.0469 c 0.34375,0 0.60156,-0.125 0.78125,-0.375 0.1875,-0.25 0.28125,-0.61328 0.28125,-1.0938 0,-0.47656 -0.09375,-0.84375 -0.28125,-1.0938 -0.17969,-0.25781 -0.4375,-0.39062 -0.78125,-0.39062 -0.34375,0 -0.60938,0.13281 -0.79688,0.39062 -0.17969,0.25 -0.26562,0.61719 -0.26562,1.0938 0,0.48047 0.085937,0.84375 0.26562,1.0938 0.1875,0.25 0.45312,0.375 0.79688,0.375 z m -1.0625,-3.25 c 0.21875,-0.30078 0.46094,-0.51953 0.73438,-0.65625 0.26953,-0.13281 0.58203,-0.20312 0.9375,-0.20312 0.61328,0 1.1172,0.24609 1.5156,0.73438 0.40625,0.49219 0.60938,1.125 0.60938,1.9062 0,0.7812 -0.20312,1.418 -0.60938,1.9062 -0.39844,0.49219 -0.90234,0.73438 -1.5156,0.73438 -0.35547,0 -0.66797,-0.070312 -0.9375,-0.20312 C 2.85154,-0.21104 2.60936,-0.42979 2.3906,-0.73448 V -1e-4 H 0.7812 v -7 h 1.6094 z"
         id="path3319" />
    </symbol>
    <symbol
       id="g"
       overflow="visible">
      <path
         d="m 0.10938,-5.0469 h 1.6094 l 1.3594,3.4219 1.1562,-3.4219 h 1.6094 l -2.125,5.5312 C 3.50784,1.03508 3.25784,1.4218 2.96878,1.6405 2.68753,1.86706 2.31644,1.98425 1.85938,1.98425 h -0.9375 v -1.0469 h 0.5 c 0.28125,0 0.47656,-0.046875 0.59375,-0.14062 0.125,-0.085937 0.22266,-0.24219 0.29688,-0.46875 L 2.359385,0.18736 Z"
         id="path3322" />
    </symbol>
    <symbol
       id="i"
       overflow="visible">
      <path
         d="M 6.8906,-0.5 C 6.4531,-0.28906 5.99998,-0.13281 5.5312,-0.03125 5.07026,0.07031 4.5937,0.125 4.0937,0.125 c -1.1172,0 -2,-0.3125 -2.6562,-0.9375 -0.6562,-0.625 -0.98438,-1.4727 -0.98438,-2.5469 0,-1.082 0.33203,-1.9297 1,-2.5469 0.66406,-0.625 1.5781,-0.9375 2.7344,-0.9375 0.44531,0 0.875,0.042969 1.2812,0.125 0.41406,0.085938 0.80469,0.21094 1.1719,0.375 v 1.3906 c -0.375,-0.20703 -0.75,-0.36328 -1.125,-0.46875 -0.36719,-0.11328 -0.73438,-0.17188 -1.1094,-0.17188 -0.6875,0 -1.2188,0.19922 -1.5938,0.59375 -0.375,0.38672 -0.5625,0.93359 -0.5625,1.6406 0,0.71875 0.17578,1.2734 0.53125,1.6562 0.36328,0.38672 0.87891,0.57812 1.5469,0.57812 0.17578,0 0.34375,-0.00781 0.5,-0.03125 0.15625,-0.019531 0.29688,-0.054688 0.42188,-0.10938 v -1.2969 h -1.0625 v -1.1719 h 2.7031 z"
         id="path3325" />
    </symbol>
    <symbol
       id="f"
       overflow="visible">
      <path
         d="M 5.8438,-3.0625 V 0 h -1.625 v -2.3438 c 0,-0.4375 -0.011719,-0.73828 -0.03125,-0.90625 C 4.164112,-3.41411 4.132862,-3.53521 4.0938,-3.60943 4.0313,-3.71099 3.94146,-3.79693 3.82818,-3.85943 3.72271,-3.92193 3.60162,-3.95318 3.4688,-3.95318 c -0.33594,0 -0.60156,0.13281 -0.79688,0.39062 -0.1875,0.26172 -0.28125,0.62109 -0.28125,1.0781 V -6e-5 h -1.6094 v -5.0469 h 1.6094 v 0.75 c 0.23828,-0.30078 0.49219,-0.51953 0.76562,-0.65625 0.26953,-0.13281 0.57031,-0.20312 0.90625,-0.20312 0.58203,0 1.0234,0.17969 1.3281,0.53125 0.30078,0.35547 0.45312,0.875 0.45312,1.5625 z"
         id="path3328" />
    </symbol>
    <symbol
       id="t"
       overflow="visible">
      <path
         d="m 0.84375,-6.7188 h 1.7344 v 2.4531 l 2.5,-2.4531 h 2.0156 l -3.2344,3.1875 3.5625,3.5312 h -2.1719 l -2.6719,-2.6406 v 2.6406 h -1.7344 z"
         id="path3331" />
    </symbol>
    <symbol
       id="h"
       overflow="visible">
      <path
         d="M 5.8438,-3.0625 V 0 h -1.625 v -2.3438 c 0,-0.4375 -0.011719,-0.73828 -0.03125,-0.90625 C 4.164112,-3.41411 4.132862,-3.53521 4.0938,-3.60943 4.0313,-3.71099 3.94146,-3.79693 3.82818,-3.85943 3.72271,-3.92193 3.60162,-3.95318 3.4688,-3.95318 c -0.33594,0 -0.60156,0.13281 -0.79688,0.39062 -0.1875,0.26172 -0.28125,0.62109 -0.28125,1.0781 V -6e-5 h -1.6094 v -7 h 1.6094 v 2.7031 c 0.23828,-0.30078 0.49219,-0.51953 0.76562,-0.65625 0.26953,-0.13281 0.57031,-0.20312 0.90625,-0.20312 0.58203,0 1.0234,0.17969 1.3281,0.53125 0.30078,0.35547 0.45312,0.875 0.45312,1.5625 z"
         id="path3334" />
    </symbol>
    <symbol
       id="a"
       overflow="visible">
      <path
         d="m 3.1719,-4.0156 c -0.35547,0 -0.625,0.13281 -0.8125,0.39062 -0.1875,0.26172 -0.28125,0.63281 -0.28125,1.1094 0,0.48047 0.09375,0.85156 0.28125,1.1094 0.1875,0.26172 0.45703,0.39062 0.8125,0.39062 0.35156,0 0.625,-0.12891 0.8125,-0.39062 0.1875,-0.25781 0.28125,-0.62891 0.28125,-1.1094 0,-0.47656 -0.09375,-0.84766 -0.28125,-1.1094 C 3.7969,-3.88279 3.52346,-4.0156 3.1719,-4.0156 Z m 0,-1.1406 c 0.86328,0 1.5391,0.23438 2.0312,0.70312 0.48828,0.46094 0.73438,1.1055 0.73438,1.9375 0,0.82422 -0.24609,1.4688 -0.73438,1.9375 -0.49219,0.46875 -1.168,0.70312 -2.0312,0.70312 -0.86719,0 -1.5469,-0.23438 -2.0469,-0.70312 -0.49219,-0.46875 -0.73438,-1.1133 -0.73438,-1.9375 0,-0.83203 0.24219,-1.4766 0.73438,-1.9375 0.5,-0.46875 1.1797,-0.70312 2.0469,-0.70312 z"
         id="path3337" />
    </symbol>
    <symbol
       id="s"
       overflow="visible">
      <path
         d="m 0.84375,-6.7188 h 1.7344 v 5.4062 h 3.0469 v 1.3125 h -4.7812 z"
         id="path3340" />
    </symbol>
    <symbol
       id="r"
       overflow="visible">
      <path
         d="m 4.0938,-7 v 1.0469 H 3.20318 c -0.23047,0 -0.39062,0.042969 -0.48438,0.125 -0.085938,0.085937 -0.125,0.23047 -0.125,0.4375 v 0.34375 h 1.375 v 1.1562 H 2.5938 V -5e-5 H 0.9844 v -3.8906 H 0.1719 v -1.1562 H 0.9844 V -5.3906 c 0,-0.55078 0.14844,-0.95703 0.45312,-1.2188 0.30078,-0.25781 0.77344,-0.39062 1.4219,-0.39062 z"
         id="path3343" />
    </symbol>
    <symbol
       id="q"
       overflow="visible">
      <path
         d="m 5.4531,-4.2031 c 0.19531,-0.3125 0.4375,-0.54688 0.71875,-0.70312 0.28125,-0.16406 0.58594,-0.25 0.92188,-0.25 0.58203,0 1.0234,0.17969 1.3281,0.53125 0.30078,0.35547 0.45312,0.875 0.45312,1.5625 V 3e-5 h -1.625 v -2.625 c 0.00781,-0.039062 0.015625,-0.082031 0.015625,-0.125 v -0.1875 c 0,-0.35156 -0.054687,-0.60938 -0.15625,-0.76562 -0.10547,-0.16406 -0.27734,-0.25 -0.51562,-0.25 -0.30469,0 -0.53906,0.13281 -0.70312,0.39062 -0.16797,0.25 -0.25781,0.61719 -0.26562,1.0938 v 2.4688 h -1.6094 v -2.625 c 0,-0.5625 -0.054687,-0.92188 -0.15625,-1.0781 -0.09375,-0.16406 -0.26172,-0.25 -0.5,-0.25 -0.3125,0 -0.55469,0.13281 -0.71875,0.39062 -0.16797,0.25 -0.25,0.60938 -0.25,1.0781 v 2.4844 h -1.625 v -5.0469 h 1.625 v 0.75 c 0.19531,-0.28906 0.42188,-0.50391 0.67188,-0.64062 0.25781,-0.14453 0.54688,-0.21875 0.85938,-0.21875 0.34375,0 0.64453,0.085938 0.90625,0.25 0.26953,0.16797 0.47656,0.40234 0.625,0.70312 z"
         id="path3346" />
    </symbol>
    <symbol
       id="p"
       overflow="visible">
      <path
         d="m 0.84375,-6.7188 h 1.9375 l 2.4375,4.6094 v -4.6094 h 1.6562 V 0 H 4.93745 L 2.48435,-4.6094 V 0 h -1.6406 z"
         id="path3349" />
    </symbol>
    <symbol
       id="o"
       overflow="visible">
      <path
         d="m 0.71875,-1.9688 v -3.0781 h 1.625 v 0.51562 c 0,0.27344 -0.00781,0.61719 -0.015625,1.0312 v 0.8125 c 0,0.40625 0.00781,0.69922 0.03125,0.875 0.019531,0.17969 0.054687,0.30859 0.10938,0.39062 0.0625,0.10547 0.14453,0.1875 0.25,0.25 0.11328,0.054687 0.23828,0.078125 0.375,0.078125 0.33203,0 0.59375,-0.125 0.78125,-0.375 0.19531,-0.25781 0.29688,-0.61719 0.29688,-1.0781 v -2.5 h 1.6094 v 5.0469 h -1.6094 v -0.73438 c -0.24219,0.30469 -0.49609,0.52344 -0.76562,0.65625 -0.27344,0.13281 -0.57422,0.20312 -0.90625,0.20312 -0.57422,0 -1.0156,-0.17578 -1.3281,-0.53125 -0.30469,-0.35156 -0.45312,-0.875 -0.45312,-1.5625 z"
         id="path3352" />
    </symbol>
    <symbol
       id="n"
       overflow="visible">
      <path
         d="m 0.84375,-6.7188 h 2.875 c 0.85156,0 1.5078,0.19531 1.9688,0.57812 0.45703,0.375 0.6875,0.91406 0.6875,1.6094 0,0.71094 -0.23047,1.2578 -0.6875,1.6406 -0.46094,0.375 -1.1172,0.5625 -1.9688,0.5625 H 2.57815 V -8e-5 h -1.7344 z m 1.7344,1.25 v 1.875 h 0.95312 c 0.34375,0 0.60156,-0.078125 0.78125,-0.23438 0.1875,-0.16406 0.28125,-0.39844 0.28125,-0.70312 0,-0.30078 -0.09375,-0.53125 -0.28125,-0.6875 -0.17969,-0.16406 -0.4375,-0.25 -0.78125,-0.25 z"
         id="path3355" />
    </symbol>
    <symbol
       id="m"
       overflow="visible">
      <path
         d="m 0.78125,-5.0469 h 1.6094 v 4.9531 c 0,0.67578 -0.16797,1.1914 -0.5,1.5469 -0.32422,0.35156 -0.79297,0.53125 -1.4062,0.53125 h -0.79688 v -1.0469 h 0.28125 c 0.3125,0 0.52344,-0.074219 0.64062,-0.21875 0.11328,-0.13672 0.17188,-0.40625 0.17188,-0.8125 z m 0,-1.9531 h 1.6094 v 1.3125 h -1.6094 z"
         id="path3358" />
    </symbol>
    <symbol
       id="l"
       overflow="visible">
      <path
         d="m 4.8438,-4.8906 v 1.3281 C 4.62505,-3.71875 4.4063,-3.83203 4.18755,-3.90625 3.9688,-3.976562 3.73833,-4.01563 3.50005,-4.01563 c -0.44922,0 -0.79688,0.13672 -1.0469,0.40625 -0.25,0.26172 -0.375,0.625 -0.375,1.0938 0,0.4688 0.125,0.83984 0.375,1.1094 0.25,0.26172 0.59766,0.39062 1.0469,0.39062 0.25,0 0.48828,-0.035156 0.71875,-0.10938 0.22656,-0.082031 0.4375,-0.19531 0.625,-0.34375 v 1.3125 C 4.5938,-0.06244 4.33599,0.00397 4.07818,0.04693 3.81646,0.097711 3.55474,0.125055 3.29693,0.125055 c -0.90625,0 -1.6211,-0.22656 -2.1406,-0.6875 -0.51172,-0.46875 -0.76562,-1.1172 -0.76562,-1.9531 0,-0.83203 0.25391,-1.4766 0.76562,-1.9375 0.51953,-0.46875 1.2344,-0.70312 2.1406,-0.70312 0.26953,0 0.53125,0.023438 0.78125,0.0625 0.25781,0.042969 0.51562,0.10938 0.76562,0.20312 z"
         id="path3361" />
    </symbol>
    <clipPath
       clipPathUnits="userSpaceOnUse"
       id="clipPath3568">
      <rect
         style="fill:none;stroke-width:0.75"
         id="rect3570"
         width="579.0871"
         height="559.09802"
         x="59.306805"
         y="0.89858788" />
    </clipPath>
  </defs>
  <g
     id="g3458"
     clip-path="url(#clipPath3568)"
     transform="translate(-61.596461,-0.89858788)">
    <path
       d="m 404.35,252.8 c -7.5742,19.145 -12.66,46.824 -12.688,88.625 0,10.801 0.34766,22.551 1.0977,35.34 0.46094,7.8398 6.9648,13.891 14.723,13.891 0.29297,0 0.58203,-0.008 0.87891,-0.0273 8.1367,-0.47656 14.34,-7.4609 13.867,-15.594 -0.72266,-12.27 -1.0508,-23.441 -1.0469,-33.609 -0.0664,-44.664 6.4453,-69.758 12.844,-82.855 v 276.69 c 0,12.598 10.215,22.805 22.805,22.805 12.594,0 22.809,-10.207 22.809,-22.805 v -166.52 h 8.5508 v 166.52 c 0,12.598 10.215,22.805 22.805,22.805 12.594,0 22.809,-10.207 22.809,-22.805 v -276.61 c 1.0938,2.2422 2.1914,4.8125 3.2812,7.8086 5.1992,14.41 9.5703,38.055 9.5547,74.965 0.004,10.176 -0.32031,21.348 -1.0391,33.617 -0.47656,8.1367 5.7383,15.113 13.879,15.594 0.28906,0.0156 0.58203,0.0273 0.86719,0.0273 7.7578,0 14.266,-6.0547 14.723,-13.902 0.73828,-12.789 1.0859,-24.531 1.0898,-35.332 -0.0781,-55.676 -8.9688,-86.488 -21.094,-105.02 -6.0586,-9.1992 -13.145,-15.094 -19.695,-18.363 -6.1641,-3.1094 -11.59,-3.8594 -14.941,-3.9297 -0.29297,-0.0195 -0.58203,-0.043 -0.88281,-0.043 h -71.266 c -0.3125,0 -0.61719,0.0273 -0.92578,0.0469 -3.3555,0.0742 -8.7617,0.83203 -14.902,3.9297 -9.918,4.9141 -20.617,15.676 -28.102,34.75 z"
       id="path3366" />
    <path
       d="m 525.42,162.06 c 0,22.922 -18.582,41.504 -41.504,41.504 -22.922,0 -41.504,-18.582 -41.504,-41.504 0,-22.922 18.582,-41.504 41.504,-41.504 22.922,0 41.504,18.582 41.504,41.504"
       id="path3368" />
    <path
       d="m 329.43,560 h 19.367 V 292.19 l -19.367,-6.4727 z"
       id="path3370" />
    <path
       d="M 638.4,0 H 329.42 v 242.94 l 19.367,6.4766 v -178.09 h 270.24 v 488.67 h 19.367 z M 454.56,50.559 h -30.266 v -30.27 h 30.266 z m 44.484,0 h -30.266 v -30.27 h 30.266 z m 44.484,0 h -30.266 v -30.27 h 30.266 z"
       id="path3372" />
    <path
       d="m 125.94,210.22 h -6.707 c -0.73828,0 -1.4648,0.0586 -2.1875,0.15234 -1.7695,0.082 -3.5547,0.4375 -5.3008,1.1211 -2.1133,0.8125 -14.949,6.4336 -27.121,23.016 -12.203,16.543 -23.086,43.609 -23.027,84.805 0,10.562 0.69531,22.074 2.2422,34.625 1.0312,8.4141 8.1914,14.582 16.457,14.582 0.67578,0 1.3594,-0.0391 2.043,-0.125 9.1016,-1.1172 15.574,-9.4023 14.457,-18.504 -1.3945,-11.316 -1.9922,-21.477 -1.9922,-30.578 0.04687,-28.168 5.6523,-45.992 11.754,-57.391 l 16.398,69.863 c -0.26562,0.90625 -0.49219,1.8281 -0.65234,2.7812 l -33.363,195.25 c -2.3203,13.555 6.7969,26.422 20.348,28.742 1.4219,0.24219 2.832,0.35938 4.2266,0.35938 11.91,0 22.441,-8.5742 24.512,-20.715 l 28.656,-167.67 h 2.5977 l 28.652,167.67 c 2.0742,12.137 12.605,20.711 24.512,20.715 1.3945,0 2.8047,-0.11719 4.2266,-0.35938 13.559,-2.3203 22.668,-15.184 20.352,-28.742 l -33.359,-195.25 c -0.16406,-0.94531 -0.38672,-1.8672 -0.64844,-2.7656 l 0.12891,-0.55078 z"
       id="path3374" />
    <path
       d="m 127.57,116.51 v 13.598 h 80.582 l 14.059,-23.211 z"
       id="path3376" />
    <path
       d="m 127.57,133.79 v 17.363 c -5.1914,22.316 8.6914,44.621 31.008,49.812 22.32,5.1992 44.629,-8.6836 49.824,-31.004 1.457,-6.2539 1.4141,-12.504 0.10938,-18.379 h 18.621 l -18.496,-17.797 z"
       id="path3378" />
    <path
       d="m 350.11,288.75 c 1.7422,0.58203 3.5234,0.86328 5.2656,0.86328 6.9453,0 13.414,-4.3906 15.738,-11.344 2.9062,-8.6953 -1.7852,-18.102 -10.48,-21.008 l -137.31,-45.902 c -0.77344,-0.25781 -1.5547,-0.43359 -2.3359,-0.57812 -1.3672,-0.35547 -2.7891,-0.55469 -4.25,-0.55469 h -77.148 l 76.91,106.75 15.863,-67.586 67.543,22.582 z"
       id="path3380" />
    <use
       x="61.597656"
       y="587.66797"
       xlink:href="#u"
       id="use3382"
       width="100%"
       height="100%" />
    <use
       x="68.367188"
       y="587.66797"
       xlink:href="#e"
       id="use3384"
       width="100%"
       height="100%" />
    <use
       x="72.917969"
       y="587.66797"
       xlink:href="#b"
       id="use3386"
       width="100%"
       height="100%" />
    <use
       x="79.171875"
       y="587.66797"
       xlink:href="#d"
       id="use3388"
       width="100%"
       height="100%" />
    <use
       x="85.394531"
       y="587.66797"
       xlink:href="#c"
       id="use3390"
       width="100%"
       height="100%" />
    <use
       x="89.804688"
       y="587.66797"
       xlink:href="#b"
       id="use3392"
       width="100%"
       height="100%" />
    <use
       x="96.058594"
       y="587.66797"
       xlink:href="#k"
       id="use3394"
       width="100%"
       height="100%" />
    <use
       x="105.875"
       y="587.66797"
       xlink:href="#j"
       id="use3396"
       width="100%"
       height="100%" />
    <use
       x="112.47656"
       y="587.66797"
       xlink:href="#g"
       id="use3398"
       width="100%"
       height="100%" />
    <use
       x="121.69922"
       y="587.66797"
       xlink:href="#i"
       id="use3400"
       width="100%"
       height="100%" />
    <use
       x="129.26953"
       y="587.66797"
       xlink:href="#d"
       id="use3402"
       width="100%"
       height="100%" />
    <use
       x="135.49219"
       y="587.66797"
       xlink:href="#f"
       id="use3404"
       width="100%"
       height="100%" />
    <use
       x="145.26953"
       y="587.66797"
       xlink:href="#t"
       id="use3406"
       width="100%"
       height="100%" />
    <use
       x="152.41797"
       y="587.66797"
       xlink:href="#h"
       id="use3408"
       width="100%"
       height="100%" />
    <use
       x="158.98438"
       y="587.66797"
       xlink:href="#a"
       id="use3410"
       width="100%"
       height="100%" />
    <use
       x="165.32031"
       y="587.66797"
       xlink:href="#a"
       id="use3412"
       width="100%"
       height="100%" />
    <use
       x="171.65625"
       y="587.66797"
       xlink:href="#f"
       id="use3414"
       width="100%"
       height="100%" />
    <use
       x="181.43359"
       y="587.66797"
       xlink:href="#s"
       id="use3416"
       width="100%"
       height="100%" />
    <use
       x="187.30859"
       y="587.66797"
       xlink:href="#d"
       id="use3418"
       width="100%"
       height="100%" />
    <use
       x="193.53516"
       y="587.66797"
       xlink:href="#g"
       id="use3420"
       width="100%"
       height="100%" />
    <use
       x="61.597656"
       y="596.89453"
       xlink:href="#r"
       id="use3422"
       width="100%"
       height="100%" />
    <use
       x="65.613281"
       y="596.89453"
       xlink:href="#e"
       id="use3424"
       width="100%"
       height="100%" />
    <use
       x="70.160156"
       y="596.89453"
       xlink:href="#a"
       id="use3426"
       width="100%"
       height="100%" />
    <use
       x="76.496094"
       y="596.89453"
       xlink:href="#q"
       id="use3428"
       width="100%"
       height="100%" />
    <use
       x="89.320312"
       y="596.89453"
       xlink:href="#c"
       id="use3430"
       width="100%"
       height="100%" />
    <use
       x="93.726562"
       y="596.89453"
       xlink:href="#h"
       id="use3432"
       width="100%"
       height="100%" />
    <use
       x="100.29297"
       y="596.89453"
       xlink:href="#b"
       id="use3434"
       width="100%"
       height="100%" />
    <use
       x="109.76172"
       y="596.89453"
       xlink:href="#p"
       id="use3436"
       width="100%"
       height="100%" />
    <use
       x="117.48047"
       y="596.89453"
       xlink:href="#a"
       id="use3438"
       width="100%"
       height="100%" />
    <use
       x="123.81641"
       y="596.89453"
       xlink:href="#o"
       id="use3440"
       width="100%"
       height="100%" />
    <use
       x="130.38281"
       y="596.89453"
       xlink:href="#f"
       id="use3442"
       width="100%"
       height="100%" />
    <use
       x="140.16016"
       y="596.89453"
       xlink:href="#n"
       id="use3444"
       width="100%"
       height="100%" />
    <use
       x="146.91797"
       y="596.89453"
       xlink:href="#e"
       id="use3446"
       width="100%"
       height="100%" />
    <use
       x="151.46484"
       y="596.89453"
       xlink:href="#a"
       id="use3448"
       width="100%"
       height="100%" />
    <use
       x="157.80469"
       y="596.89453"
       xlink:href="#m"
       id="use3450"
       width="100%"
       height="100%" />
    <use
       x="160.96484"
       y="596.89453"
       xlink:href="#b"
       id="use3452"
       width="100%"
       height="100%" />
    <use
       x="167.21875"
       y="596.89453"
       xlink:href="#l"
       id="use3454"
       width="100%"
       height="100%" />
    <use
       x="172.6875"
       y="596.89453"
       xlink:href="#c"
       id="use3456"
       width="100%"
       height="100%" />
  </g>
</svg>
