<?xml version="1.0" encoding="UTF-8" standalone="no"?>
<svg
   width="416.70245pt"
   height="420.99054pt"
   version="1.1"
   viewBox="0 0 416.70245 420.99054"
   id="svg7979"
   sodipodi:docname="security-guard.svg"
   inkscape:version="1.1.1 (3bf5ae0, 2021-09-20)"
   xmlns:inkscape="http://www.inkscape.org/namespaces/inkscape"
   xmlns:sodipodi="http://sodipodi.sourceforge.net/DTD/sodipodi-0.dtd"
   xmlns:xlink="http://www.w3.org/1999/xlink"
   xmlns="http://www.w3.org/2000/svg"
   xmlns:svg="http://www.w3.org/2000/svg">
  <sodipodi:namedview
     id="namedview7981"
     pagecolor="#ffffff"
     bordercolor="#666666"
     borderopacity="1.0"
     inkscape:pageshadow="2"
     inkscape:pageopacity="0.0"
     inkscape:pagecheckerboard="0"
     inkscape:document-units="pt"
     showgrid="false"
     fit-margin-top="0"
     fit-margin-left="0"
     fit-margin-right="0"
     fit-margin-bottom="0"
     inkscape:zoom="0.83464286"
     inkscape:cx="282.15661"
     inkscape:cy="367.22294"
     inkscape:window-width="3440"
     inkscape:window-height="1343"
     inkscape:window-x="0"
     inkscape:window-y="0"
     inkscape:window-maximized="1"
     inkscape:current-layer="svg7979" />
  <defs
     id="defs7889">
    <symbol
       id="g"
       overflow="visible">
      <path
         d="M 3.6562,-0.21875 C 3.4687,-0.125 3.26948,-0.05078 3.06245,0 2.86323,0.050781 2.6562,0.078125 2.43745,0.078125 c -0.66797,0 -1.1992,-0.17969 -1.5938,-0.54688 -0.38672,-0.375 -0.57812,-0.87891 -0.57812,-1.5156 0,-0.64453 0.19141,-1.1484 0.57812,-1.5156 0.39453,-0.375 0.92578,-0.5625 1.5938,-0.5625 0.21875,0 0.42578,0.027344 0.625,0.078125 0.20703,0.054687 0.40625,0.125 0.59375,0.21875 v 0.82812 c -0.1875,-0.125 -0.375,-0.21875 -0.5625,-0.28125 -0.17969,-0.0625 -0.37109,-0.09375 -0.57812,-0.09375 -0.36719,0 -0.65625,0.12109 -0.875,0.35938 -0.21094,0.23047 -0.3125,0.55469 -0.3125,0.96875 0,0.40625 0.10156,0.73047 0.3125,0.96875 0.21875,0.23047 0.50781,0.34375 0.875,0.34375 0.20703,0 0.39844,-0.023437 0.57812,-0.078125 0.1875,-0.0625 0.375,-0.16016 0.5625,-0.29688 z"
         id="path7823" />
    </symbol>
    <symbol
       id="c"
       overflow="visible">
      <path
         d="M 2.6875,-2.1719 C 2.601562,-2.210963 2.51953,-2.242213 2.4375,-2.26565 2.351562,-2.285181 2.26953,-2.2969 2.1875,-2.2969 c -0.25,0 -0.44531,0.085937 -0.57812,0.25 -0.125,0.15625 -0.1875,0.38281 -0.1875,0.67188 V -2e-5 H 0.45313 v -2.9844 h 0.96875 v 0.48438 c 0.11328,-0.19531 0.25,-0.33594 0.40625,-0.42188 0.16406,-0.09375 0.35938,-0.14062 0.57812,-0.14062 h 0.10938 c 0.039063,0 0.09375,0.00781 0.15625,0.015625 z"
         id="path7826" />
    </symbol>
    <symbol
       id="a"
       overflow="visible">
      <path
         d="m 3.4375,-1.5 v 0.26562 H 1.2031 c 0.03125,0.23047 0.11328,0.40234 0.25,0.51562 0.13281,0.10547 0.32812,0.15625 0.57812,0.15625 0.20703,0 0.41406,-0.023438 0.625,-0.078125 0.20703,-0.0625 0.42188,-0.15625 0.64062,-0.28125 v 0.73438 c -0.21875,0.09375 -0.44531,0.16406 -0.67188,0.20312 -0.23047,0.039062 -0.45312,0.0625 -0.67188,0.0625 -0.54297,0 -0.96484,-0.13281 -1.2656,-0.40625 -0.30469,-0.28125 -0.45312,-0.67188 -0.45312,-1.1719 0,-0.47656 0.14453,-0.85938 0.4375,-1.1406 0.30078,-0.28125 0.70703,-0.42188 1.2188,-0.42188 0.46875,0 0.84375,0.14062 1.125,0.42188 0.28125,0.28126 0.42188,0.66406 0.42188,1.1406 z M 2.46875,-1.82812 C 2.46875,-2.0039 2.410156,-2.14453 2.29687,-2.25 2.1914,-2.36328 2.05468,-2.42188 1.89062,-2.42188 c -0.1875,0 -0.33984,0.054687 -0.45312,0.15625 -0.11719,0.10547 -0.1875,0.25 -0.21875,0.4375 z"
         id="path7829" />
    </symbol>
    <symbol
       id="d"
       overflow="visible">
      <path
         d="m 1.7969,-1.3438 c -0.19922,0 -0.35156,0.039062 -0.45312,0.10938 -0.09375,0.0625 -0.14062,0.16406 -0.14062,0.29688 0,0.11719 0.035156,0.21094 0.10938,0.28125 0.082031,0.0625 0.19531,0.09375 0.34375,0.09375 0.17578,0 0.32812,-0.0625 0.45312,-0.1875 0.125,-0.125 0.1875,-0.28516 0.1875,-0.48438 V -1.3438 Z M 3.2657,-1.70318 V -8e-5 H 2.29695 v -0.4375 c -0.125,0.17969 -0.27344,0.30859 -0.4375,0.39062 -0.15625,0.082031 -0.35156,0.125 -0.57812,0.125 -0.3125,0 -0.57031,-0.085938 -0.76562,-0.26562 -0.1875,-0.1875 -0.28125,-0.42188 -0.28125,-0.70312 0,-0.35156 0.11719,-0.61328 0.35938,-0.78125 0.23828,-0.16406 0.61719,-0.25 1.1406,-0.25 h 0.5625 v -0.0625 c 0,-0.15625 -0.0625,-0.26562 -0.1875,-0.32812 -0.11719,-0.070312 -0.29688,-0.10938 -0.54688,-0.10938 -0.21094,0 -0.40234,0.023437 -0.57812,0.0625 -0.17969,0.042969 -0.33984,0.10156 -0.48438,0.17188 v -0.71875 c 0.19531,-0.050781 0.39844,-0.085938 0.60938,-0.10938 0.20703,-0.03125 0.41406,-0.046875 0.625,-0.046875 0.53906,0 0.92969,0.10938 1.1719,0.32812 0.23828,0.21094 0.35938,0.55469 0.35938,1.0312 z"
         id="path7832" />
    </symbol>
    <symbol
       id="b"
       overflow="visible">
      <path
         d="m 1.5,-3.8438 v 0.85938 h 0.98438 v 0.67188 H 1.5 v 1.2812 c 0,0.13672 0.023438,0.23047 0.078125,0.28125 0.0625,0.042969 0.17578,0.0625 0.34375,0.0625 h 0.48438 V -9e-5 h -0.8125 c -0.38672,0 -0.65625,-0.078125 -0.8125,-0.23438 -0.15625,-0.156255 -0.23438,-0.42188 -0.23438,-0.79688 v -1.2812 h -0.46875 v -0.67188 h 0.46875 v -0.85938 z"
         id="path7835" />
    </symbol>
    <symbol
       id="k"
       overflow="visible">
      <path
         d="M 2.5,-2.5469 V -4.1563 H 3.45312 V -10e-5 H 2.5 v -0.4375 c -0.13672,0.17969 -0.28125,0.30859 -0.4375,0.39062 -0.15625,0.082031 -0.33984,0.125 -0.54688,0.125 -0.375,0 -0.68359,-0.14453 -0.92188,-0.4375 -0.23047,-0.28906 -0.34375,-0.67188 -0.34375,-1.1406 0,-0.45703 0.11328,-0.83203 0.34375,-1.125 0.23828,-0.28906 0.54688,-0.4375 0.92188,-0.4375 0.19531,0 0.375,0.042969 0.53125,0.125 0.16406,0.085938 0.31641,0.21484 0.45312,0.39062 z m -0.64062,1.9375 c 0.20703,0 0.36328,-0.070313 0.46875,-0.21875 0.11328,-0.15625 0.17188,-0.37891 0.17188,-0.67188 0,-0.28125 -0.058594,-0.49219 -0.17188,-0.64062 -0.10547,-0.15625 -0.26172,-0.23438 -0.46875,-0.23438 -0.19922,0 -0.35547,0.078125 -0.46875,0.23438 -0.10547,0.14844 -0.15625,0.35938 -0.15625,0.64062 0,0.29297 0.050781,0.51562 0.15625,0.67188 0.11328,0.14844 0.26953,0.21875 0.46875,0.21875 z"
         id="path7838" />
    </symbol>
    <symbol
       id="j"
       overflow="visible">
      <path
         d="m 2.0469,-0.60938 c 0.20703,0 0.36328,-0.070313 0.46875,-0.21875 0.11328,-0.15625 0.17188,-0.37891 0.17188,-0.67188 0,-0.28125 -0.058594,-0.49219 -0.17188,-0.64062 -0.10547,-0.15625 -0.26172,-0.23438 -0.46875,-0.23438 -0.19922,0 -0.35547,0.078125 -0.46875,0.23438 -0.10547,0.14844 -0.15625,0.35938 -0.15625,0.64062 0,0.29297 0.050781,0.51562 0.15625,0.67188 0.11328,0.14844 0.26953,0.21875 0.46875,0.21875 z m -0.625,-1.9375 c 0.125,-0.17578 0.26562,-0.30469 0.42188,-0.39062 0.16406,-0.082031 0.35156,-0.125 0.5625,-0.125 0.36328,0 0.66406,0.14844 0.90625,0.4375 0.23828,0.29297 0.35938,0.66797 0.35938,1.125 0,0.46875 -0.12109,0.85156 -0.35938,1.1406 -0.24219,0.29297 -0.54297,0.4375 -0.90625,0.4375 -0.21094,0 -0.39844,-0.042969 -0.5625,-0.125 C 1.68753,-0.128931 1.5469,-0.25784 1.4219,-0.43752 V -2e-5 H 0.45315 v -4.1562 H 1.4219 Z"
         id="path7841" />
    </symbol>
    <symbol
       id="i"
       overflow="visible">
      <path
         d="m 0.0625,-2.9844 h 0.95312 l 0.8125,2.0156 0.6875,-2.0156 H 3.46874 L 2.20314,0.2812 C 2.07814,0.61323 1.9297,0.84761 1.76564,0.98432 1.59767,1.11713 1.37502,1.18744 1.09376,1.18744 H 0.54688 V 0.54682 h 0.29688 c 0.16406,0 0.28516,-0.027344 0.35938,-0.078125 0.070313,-0.054688 0.12891,-0.14062 0.17188,-0.26562 l 0.03125,-0.09375 z"
         id="path7844" />
    </symbol>
    <symbol
       id="h"
       overflow="visible">
      <path
         d="M 0.45312,-2.9844 H 1.42187 V 0 H 0.45312 Z m 0,-1.1719 h 0.96875 v 0.78125 H 0.45312 Z"
         id="path7847" />
    </symbol>
    <symbol
       id="v"
       overflow="visible">
      <path
         d="m 0.078125,-2.9844 h 0.95312 l 0.75,2.0625 0.75,-2.0625 h 0.95312 L 2.312465,0 h -1.0625 z"
         id="path7850" />
    </symbol>
    <symbol
       id="u"
       overflow="visible">
      <path
         d="m 3.2812,-3.8594 v 0.84375 C 3.06245,-3.11721 2.84761,-3.19143 2.64058,-3.2344 2.42964,-3.285181 2.23433,-3.312525 2.04683,-3.312525 c -0.25,0 -0.43359,0.039062 -0.54688,0.10938 -0.11719,0.0625 -0.17188,0.16797 -0.17188,0.3125 0,0.10547 0.035156,0.1875 0.10938,0.25 0.082031,0.054687 0.22656,0.10156 0.4375,0.14062 l 0.4375,0.09375 c 0.44531,0.09375 0.75781,0.23047 0.9375,0.40625 0.1875,0.17969 0.28125,0.4375 0.28125,0.78125 0,0.4375 -0.13281,0.76562 -0.39062,0.98438 -0.26172,0.21094 -0.65625,0.3125 -1.1875,0.3125 -0.25,0 -0.50781,-0.027344 -0.76562,-0.078125 -0.25,-0.039062 -0.50781,-0.10938 -0.76562,-0.20312 v -0.875 c 0.25781,0.13672 0.50391,0.24219 0.73438,0.3125 0.23828,0.0625 0.47266,0.09375 0.70312,0.09375 0.21875,0 0.38281,-0.035156 0.5,-0.10938 0.125,-0.070312 0.1875,-0.17578 0.1875,-0.3125 0,-0.125 -0.042969,-0.21875 -0.125,-0.28125 C 2.335903,-1.445332 2.17575,-1.50783 1.93746,-1.56252 L 1.54684,-1.65627 C 1.14059,-1.738301 0.84372,-1.87502 0.65622,-2.06252 0.47653,-2.25002 0.3906,-2.50393 0.3906,-2.82814 c 0,-0.39453 0.125,-0.69531 0.375,-0.90625 0.25781,-0.21875 0.62891,-0.32812 1.1094,-0.32812 0.22656,0 0.45703,0.023438 0.6875,0.0625 0.22656,0.03125 0.46875,0.078125 0.71875,0.14062 z"
         id="path7853" />
    </symbol>
    <symbol
       id="f"
       overflow="visible">
      <path
         d="M 0.45312,-4.1562 H 1.42187 V 0 H 0.45312 Z"
         id="path7856" />
    </symbol>
    <symbol
       id="t"
       overflow="visible">
      <path
         d="m 2.4219,-4.1562 v 0.625 H 1.90628 c -0.13672,0 -0.23438,0.027344 -0.29688,0.078125 -0.054687,0.054687 -0.078125,0.13672 -0.078125,0.25 v 0.21875 h 0.82812 v 0.67188 h -0.82812 v 2.3125 h -0.95312 v -2.3125 h -0.46875 v -0.67188 h 0.46875 v -0.21875 c 0,-0.32031 0.085937,-0.5625 0.26562,-0.71875 0.1875,-0.15625 0.47266,-0.23438 0.85938,-0.23438 z"
         id="path7859" />
    </symbol>
    <symbol
       id="e"
       overflow="visible">
      <path
         d="m 1.875,-2.375 c -0.21094,0 -0.37109,0.078125 -0.48438,0.23438 -0.10547,0.14844 -0.15625,0.35938 -0.15625,0.64062 0,0.29297 0.050781,0.51562 0.15625,0.67188 0.11328,0.14844 0.27344,0.21875 0.48438,0.21875 0.20703,0 0.36719,-0.070313 0.48438,-0.21875 C 2.47266,-0.98437 2.53126,-1.20703 2.53126,-1.5 2.53126,-1.78125 2.472666,-1.99219 2.35938,-2.14062 2.24219,-2.29687 2.08204,-2.375 1.875,-2.375 Z m 0,-0.6875 c 0.51953,0 0.92188,0.14062 1.2031,0.42188 0.28906,0.27344 0.4375,0.65234 0.4375,1.1406 0,0.5 -0.14844,0.89062 -0.4375,1.1719 C 2.79685,-0.05468 2.39451,0.07813 1.875,0.07813 1.36328,0.07813 0.96094,-0.05468 0.6719,-0.32812 0.37893,-0.60937 0.2344,-1 0.2344,-1.50002 c 0,-0.48828 0.14453,-0.86719 0.4375,-1.1406 C 0.96096,-2.92187 1.36331,-3.0625 1.875,-3.0625 Z"
         id="path7862" />
    </symbol>
    <symbol
       id="s"
       overflow="visible">
      <path
         d="m 3.2344,-2.5 c 0.11328,-0.17578 0.25391,-0.3125 0.42188,-0.40625 0.16406,-0.10156 0.35156,-0.15625 0.5625,-0.15625 0.33203,0 0.58594,0.10938 0.76562,0.32812 0.1875,0.21094 0.28125,0.51172 0.28125,0.90625 V -3e-5 H 4.2969 v -1.5625 c 0.00781,-0.019531 0.015625,-0.039062 0.015625,-0.0625 v -0.10938 c 0,-0.21875 -0.03125,-0.375 -0.09375,-0.46875 -0.0625,-0.09375 -0.16406,-0.14062 -0.29688,-0.14062 -0.1875,0 -0.33594,0.078125 -0.4375,0.23438 -0.09375,0.14844 -0.14062,0.35938 -0.14062,0.64062 V 2e-5 h -0.96875 v -1.5625 c 0,-0.33203 -0.03125,-0.54688 -0.09375,-0.64062 -0.054688,-0.09375 -0.15234,-0.14062 -0.29688,-0.14062 -0.17969,0 -0.32031,0.078125 -0.42188,0.23438 -0.09375,0.14844 -0.14062,0.35938 -0.14062,0.64062 V 8e-5 h -0.96875 v -2.9844 h 0.96875 v 0.4375 c 0.11328,-0.17578 0.24219,-0.30469 0.39062,-0.39062 0.15625,-0.082031 0.32812,-0.125 0.51562,-0.125 0.20703,0 0.39062,0.054688 0.54688,0.15625 0.15625,0.09375 0.27344,0.23047 0.35938,0.40625 z"
         id="path7865" />
    </symbol>
    <symbol
       id="r"
       overflow="visible">
      <path
         d="M 3.4688,-1.8281 V 0 H 2.50005 v -1.3906 c 0,-0.25781 -0.00781,-0.4375 -0.015625,-0.53125 -0.011719,-0.10156 -0.03125,-0.17578 -0.0625,-0.21875 -0.03125,-0.0625 -0.085937,-0.10938 -0.15625,-0.14062 -0.0625,-0.039062 -0.13281,-0.0625 -0.20312,-0.0625 -0.21094,0 -0.37109,0.078125 -0.48438,0.23438 -0.10547,0.15625 -0.15625,0.37109 -0.15625,0.64062 V 8e-5 h -0.96875 v -4.1562 h 0.96875 v 1.6094 c 0.13281,-0.17578 0.28516,-0.30469 0.45312,-0.39062 0.16406,-0.082031 0.34375,-0.125 0.53125,-0.125 0.34375,0 0.60156,0.10938 0.78125,0.32812 0.1875,0.21094 0.28125,0.51172 0.28125,0.90625 z"
         id="path7868" />
    </symbol>
    <symbol
       id="q"
       overflow="visible">
      <path
         d="M 0.5,-3.9844 H 1.6562 L 3.0937,-1.25 V -3.9844 H 4.07808 V 0 H 2.92188 L 1.48438,-2.7344 V 0 H 0.5 Z"
         id="path7871" />
    </symbol>
    <symbol
       id="p"
       overflow="visible">
      <path
         d="m 0.42188,-1.1719 v -1.8125 h 0.96875 v 0.29688 0.60938 0.48438 c 0,0.24219 0.00391,0.41797 0.015625,0.53125 0.00781,0.10547 0.03125,0.17969 0.0625,0.21875 0.039062,0.0625 0.09375,0.11719 0.15625,0.15625 0.0625,0.03125 0.13281,0.046875 0.21875,0.046875 0.19531,0 0.35156,-0.078125 0.46875,-0.23438 0.11328,-0.15625 0.17188,-0.36719 0.17188,-0.64062 v -1.4688 h 0.95312 v 2.9844 h -0.95312 v -0.4375 c -0.14844,0.17969 -0.30469,0.30859 -0.46875,0.39062 -0.15625,0.082031 -0.33594,0.125 -0.53125,0.125 -0.34375,0 -0.60938,-0.10156 -0.79688,-0.3125 -0.17969,-0.21875 -0.26562,-0.53125 -0.26562,-0.9375 z"
         id="path7874" />
    </symbol>
    <symbol
       id="o"
       overflow="visible">
      <path
         d="M 3.4688,-1.8281 V 0 H 2.50005 v -1.3906 c 0,-0.25781 -0.00781,-0.4375 -0.015625,-0.53125 -0.011719,-0.10156 -0.03125,-0.17578 -0.0625,-0.21875 -0.03125,-0.0625 -0.085937,-0.10938 -0.15625,-0.14062 -0.0625,-0.039062 -0.13281,-0.0625 -0.20312,-0.0625 -0.21094,0 -0.37109,0.078125 -0.48438,0.23438 -0.10547,0.15625 -0.15625,0.37109 -0.15625,0.64062 V 8e-5 h -0.96875 v -2.9844 h 0.96875 v 0.4375 c 0.13281,-0.17578 0.28516,-0.30469 0.45312,-0.39062 0.16406,-0.082031 0.34375,-0.125 0.53125,-0.125 0.34375,0 0.60156,0.10938 0.78125,0.32812 0.1875,0.21094 0.28125,0.51172 0.28125,0.90625 z"
         id="path7877" />
    </symbol>
    <symbol
       id="n"
       overflow="visible">
      <path
         d="m 0.5,-3.9844 h 1.7031 c 0.50781,0 0.89844,0.11719 1.1719,0.34375 0.26953,0.21875 0.40625,0.53906 0.40625,0.95312 0,0.41797 -0.13672,0.74219 -0.40625,0.96875 -0.27344,0.21875 -0.66406,0.32812 -1.1719,0.32812 H 1.53122 V -6e-5 h -1.0312 z m 1.0312,0.75 v 1.1094 h 0.5625 c 0.19531,0 0.34766,-0.046875 0.45312,-0.14062 C 2.6601,-2.36718 2.7187,-2.50781 2.7187,-2.6875 2.7187,-2.86328 2.660106,-3 2.54682,-3.09375 2.44135,-3.1875 2.28901,-3.23437 2.0937,-3.23437 Z"
         id="path7880" />
    </symbol>
    <symbol
       id="m"
       overflow="visible">
      <path
         d="m 0.45312,-2.9844 h 0.96875 v 2.9375 c 0,0.39453 -0.10156,0.69531 -0.29688,0.90625 C 0.93749,1.0781 0.66015,1.18747 0.29687,1.18747 H -0.18751 V 0.54685 h 0.17188 c 0.17578,0 0.29688,-0.042969 0.35938,-0.125 C 0.414062,0.347631 0.45313,0.19138 0.45313,-0.0469 Z m 0,-1.1719 h 0.96875 v 0.78125 H 0.45312 Z"
         id="path7883" />
    </symbol>
    <symbol
       id="l"
       overflow="visible">
      <path
         d="m 2.875,-2.8906 v 0.76562 C 2.75,-2.207011 2.61719,-2.26951 2.48438,-2.31248 2.34766,-2.351542 2.21094,-2.37498 2.07813,-2.37498 c -0.27344,0 -0.48047,0.078125 -0.625,0.23438 -0.14844,0.15625 -0.21875,0.37109 -0.21875,0.64062 0,0.28125 0.070313,0.5 0.21875,0.65625 0.14453,0.15625 0.35156,0.23438 0.625,0.23438 0.14453,0 0.28516,-0.019531 0.42188,-0.0625 0.13281,-0.039063 0.25781,-0.10938 0.375,-0.20312 v 0.78125 c -0.14844,0.0625 -0.29688,0.10156 -0.45312,0.125 -0.15625,0.03125 -0.3125,0.046875 -0.46875,0.046875 -0.54297,0 -0.96484,-0.13281 -1.2656,-0.40625 -0.30469,-0.28125 -0.45312,-0.67188 -0.45312,-1.1719 0,-0.48828 0.14844,-0.86719 0.45312,-1.1406 0.30078,-0.28125 0.72266,-0.42188 1.2656,-0.42188 0.15625,0 0.3125,0.015625 0.46875,0.046875 0.15625,0.023437 0.30469,0.0625 0.45312,0.125 z"
         id="path7886" />
    </symbol>
    <clipPath
       clipPathUnits="userSpaceOnUse"
       id="clipPath8087">
      <rect
         style="fill:none;stroke-width:0.622015"
         id="rect8089"
         width="434.91656"
         height="428.62643"
         x="138.38254"
         y="67.394096" />
    </clipPath>
  </defs>
  <g
     id="g7977"
     clip-path="url(#clipPath8087)"
     transform="translate(-138.38254,-75.03)">
    <path
       d="m 544.47,391.67 c -6.3438,-19.031 -19.359,-35.328 -36.641,-45.172 l -79.734,-38.281 -72.953,146.02 15.422,-92.312 -20.562,-20.344 -20.453,20.453 15.422,92.312 -73.062,-146.12 -79.734,38.281 c -17.281,9.8438 -30.297,26.031 -36.641,45.172 l -10.609,93.297 h 410.16 z m -30.734,52.609 h -82.031 v -41.016 h 82.031 z"
       id="path7891" />
    <path
       d="m 283.06,146.89 c 11.594,15.641 28.766,26.688 49.219,28.656 11.703,1.0938 23.516,1.0938 35.328,0 20.344,-1.9688 37.516,-13.016 49.109,-28.656 21.766,-7.5469 35.766,-18.484 35.766,-30.844 0,-22.641 -45.938,-41.016 -102.48,-41.016 -56.656,0 -102.48,18.375 -102.48,41.016 -0.32812,12.359 13.781,23.297 35.547,30.844 z"
       id="path7893" />
    <path
       d="m 369.47,196 c -6.5625,0.65625 -13.125,0.98438 -19.797,0.98438 -6.4531,0 -13.016,-0.32812 -19.469,-0.98438 -16.844,-1.6406 -32.375,-8.0938 -45.609,-18.484 H 267.97 v 0.65625 c 0.32812,45.391 36.859,122.39 82.031,122.39 45.062,0 81.703,-77 82.031,-122.39 V 177.516 H 414.97 C 401.736,187.907 386.204,194.36 369.47,196 Z"
       id="path7895" />
    <use
       x="70"
       y="576.40625"
       xlink:href="#g"
       id="use7897"
       width="100%"
       height="100%" />
    <use
       x="74.011719"
       y="576.40625"
       xlink:href="#c"
       id="use7899"
       width="100%"
       height="100%" />
    <use
       x="76.710938"
       y="576.40625"
       xlink:href="#a"
       id="use7901"
       width="100%"
       height="100%" />
    <use
       x="80.417969"
       y="576.40625"
       xlink:href="#d"
       id="use7903"
       width="100%"
       height="100%" />
    <use
       x="84.109375"
       y="576.40625"
       xlink:href="#b"
       id="use7905"
       width="100%"
       height="100%" />
    <use
       x="86.722656"
       y="576.40625"
       xlink:href="#a"
       id="use7907"
       width="100%"
       height="100%" />
    <use
       x="90.433594"
       y="576.40625"
       xlink:href="#k"
       id="use7909"
       width="100%"
       height="100%" />
    <use
       x="96.25"
       y="576.40625"
       xlink:href="#j"
       id="use7911"
       width="100%"
       height="100%" />
    <use
       x="100.16797"
       y="576.40625"
       xlink:href="#i"
       id="use7913"
       width="100%"
       height="100%" />
    <use
       x="105.63672"
       y="576.40625"
       xlink:href="#g"
       id="use7915"
       width="100%"
       height="100%" />
    <use
       x="109.64844"
       y="576.40625"
       xlink:href="#c"
       id="use7917"
       width="100%"
       height="100%" />
    <use
       x="112.34375"
       y="576.40625"
       xlink:href="#a"
       id="use7919"
       width="100%"
       height="100%" />
    <use
       x="116.05469"
       y="576.40625"
       xlink:href="#d"
       id="use7921"
       width="100%"
       height="100%" />
    <use
       x="119.74609"
       y="576.40625"
       xlink:href="#b"
       id="use7923"
       width="100%"
       height="100%" />
    <use
       x="122.35938"
       y="576.40625"
       xlink:href="#h"
       id="use7925"
       width="100%"
       height="100%" />
    <use
       x="124.23438"
       y="576.40625"
       xlink:href="#v"
       id="use7927"
       width="100%"
       height="100%" />
    <use
       x="127.79688"
       y="576.40625"
       xlink:href="#a"
       id="use7929"
       width="100%"
       height="100%" />
    <use
       x="133.41016"
       y="576.40625"
       xlink:href="#u"
       id="use7931"
       width="100%"
       height="100%" />
    <use
       x="137.35156"
       y="576.40625"
       xlink:href="#b"
       id="use7933"
       width="100%"
       height="100%" />
    <use
       x="139.96484"
       y="576.40625"
       xlink:href="#d"
       id="use7935"
       width="100%"
       height="100%" />
    <use
       x="143.65625"
       y="576.40625"
       xlink:href="#f"
       id="use7937"
       width="100%"
       height="100%" />
    <use
       x="145.52734"
       y="576.40625"
       xlink:href="#f"
       id="use7939"
       width="100%"
       height="100%" />
    <use
       x="70"
       y="581.875"
       xlink:href="#t"
       id="use7941"
       width="100%"
       height="100%" />
    <use
       x="72.378906"
       y="581.875"
       xlink:href="#c"
       id="use7943"
       width="100%"
       height="100%" />
    <use
       x="75.078125"
       y="581.875"
       xlink:href="#e"
       id="use7945"
       width="100%"
       height="100%" />
    <use
       x="78.832031"
       y="581.875"
       xlink:href="#s"
       id="use7947"
       width="100%"
       height="100%" />
    <use
       x="86.4375"
       y="581.875"
       xlink:href="#b"
       id="use7949"
       width="100%"
       height="100%" />
    <use
       x="89.050781"
       y="581.875"
       xlink:href="#r"
       id="use7951"
       width="100%"
       height="100%" />
    <use
       x="92.941406"
       y="581.875"
       xlink:href="#a"
       id="use7953"
       width="100%"
       height="100%" />
    <use
       x="98.554688"
       y="581.875"
       xlink:href="#q"
       id="use7955"
       width="100%"
       height="100%" />
    <use
       x="103.13281"
       y="581.875"
       xlink:href="#e"
       id="use7957"
       width="100%"
       height="100%" />
    <use
       x="106.89062"
       y="581.875"
       xlink:href="#p"
       id="use7959"
       width="100%"
       height="100%" />
    <use
       x="110.78516"
       y="581.875"
       xlink:href="#o"
       id="use7961"
       width="100%"
       height="100%" />
    <use
       x="116.58203"
       y="581.875"
       xlink:href="#n"
       id="use7963"
       width="100%"
       height="100%" />
    <use
       x="120.58984"
       y="581.875"
       xlink:href="#c"
       id="use7965"
       width="100%"
       height="100%" />
    <use
       x="123.28516"
       y="581.875"
       xlink:href="#e"
       id="use7967"
       width="100%"
       height="100%" />
    <use
       x="127.04297"
       y="581.875"
       xlink:href="#m"
       id="use7969"
       width="100%"
       height="100%" />
    <use
       x="128.91797"
       y="581.875"
       xlink:href="#a"
       id="use7971"
       width="100%"
       height="100%" />
    <use
       x="132.625"
       y="581.875"
       xlink:href="#l"
       id="use7973"
       width="100%"
       height="100%" />
    <use
       x="135.86719"
       y="581.875"
       xlink:href="#b"
       id="use7975"
       width="100%"
       height="100%" />
  </g>
</svg>
