<?xml version="1.0" encoding="UTF-8" standalone="no"?>
<svg
   width="596.49512pt"
   height="563.41461pt"
   version="1.1"
   viewBox="0 0 596.49512 563.41461"
   id="svg1247"
   sodipodi:docname="waiting-area.svg"
   inkscape:version="1.1.1 (3bf5ae0, 2021-09-20)"
   xmlns:inkscape="http://www.inkscape.org/namespaces/inkscape"
   xmlns:sodipodi="http://sodipodi.sourceforge.net/DTD/sodipodi-0.dtd"
   xmlns:xlink="http://www.w3.org/1999/xlink"
   xmlns="http://www.w3.org/2000/svg"
   xmlns:svg="http://www.w3.org/2000/svg">
  <sodipodi:namedview
     id="namedview1249"
     pagecolor="#ffffff"
     bordercolor="#666666"
     borderopacity="1.0"
     inkscape:pageshadow="2"
     inkscape:pageopacity="0.0"
     inkscape:pagecheckerboard="0"
     inkscape:document-units="pt"
     showgrid="false"
     fit-margin-top="0"
     fit-margin-left="0"
     fit-margin-right="0"
     fit-margin-bottom="0"
     inkscape:zoom="0.83464286"
     inkscape:cx="279.76038"
     inkscape:cy="497.81772"
     inkscape:window-width="3440"
     inkscape:window-height="1343"
     inkscape:window-x="0"
     inkscape:window-y="0"
     inkscape:window-maximized="1"
     inkscape:current-layer="svg1247" />
  <defs
     id="defs1225">
    <symbol
       id="d"
       overflow="visible">
      <path
         d="m 39.078,-2.3281 c -2.0117,1.043 -4.1094,1.8281 -6.2969,2.3594 -2.1875,0.5313 -4.4648,0.79688 -6.8281,0.79688 -7.0859,0 -12.699,-1.9766 -16.844,-5.9375 -4.1367,-3.957 -6.2031,-9.3281 -6.2031,-16.109 0,-6.7891 2.0664,-12.164 6.2031,-16.125 4.1445,-3.9688 9.7578,-5.9531 16.844,-5.9531 2.3633,0 4.6406,0.26562 6.8281,0.79688 2.1875,0.53126 4.2852,1.3242 6.2969,2.375 v 8.7969 c -2.0312,-1.3828 -4.0391,-2.3984 -6.0156,-3.0469 -1.9688,-0.64453 -4.0469,-0.96875 -6.2344,-0.96875 -3.9062,0 -6.9844,1.2578 -9.2344,3.7656 -2.2422,2.5 -3.3594,5.9531 -3.3594,10.359 0,4.3867 1.1172,7.8359 3.3594,10.344 2.25,2.5 5.3281,3.75 9.2344,3.75 2.1875,0 4.2656,-0.32031 6.2344,-0.96875 1.9766,-0.64453 3.9844,-1.6602 6.0156,-3.0469 z"
         id="path1213" />
    </symbol>
    <symbol
       id="a"
       overflow="visible">
      <path
         d="m 16.031,-40.953 v 9.0625 h 10.516 v 7.2812 H 16.031 v 13.531 c 0,1.4805 0.28906,2.4805 0.875,3 0.59375,0.52344 1.7656,0.78125 3.5156,0.78125 h 5.2344 v 7.2969 h -8.7344 c -4.0312,0 -6.8867,-0.83594 -8.5625,-2.5156 -1.6797,-1.6875 -2.5156,-4.5391 -2.5156,-8.5625 v -13.531 H 0.7654 v -7.2812 h 5.0781 v -9.0625 z"
         id="path1216" />
    </symbol>
    <symbol
       id="c"
       overflow="visible">
      <path
         d="M 26.594,-27.234 V -44.312 H 36.86 V 0 H 26.594 v -4.6094 c -1.3984,1.875 -2.9453,3.25 -4.6406,4.125 -1.6875,0.875 -3.6406,1.3125 -5.8594,1.3125 -3.9297,0 -7.1562,-1.5625 -9.6875,-4.6875 -2.5234,-3.125 -3.7812,-7.1445 -3.7812,-12.062 0,-4.9141 1.2578,-8.9375 3.7812,-12.062 2.5312,-3.125 5.7578,-4.6875 9.6875,-4.6875 2.1953,0 4.1445,0.44531 5.8438,1.3281 1.707,0.88672 3.2578,2.2578 4.6562,4.1094 z m -6.7188,20.656 c 2.1875,0 3.8516,-0.79688 5,-2.3906 1.1445,-1.5938 1.7188,-3.9102 1.7188,-6.9531 0,-3.0391 -0.57422,-5.3594 -1.7188,-6.9531 -1.1484,-1.5938 -2.8125,-2.3906 -5,-2.3906 -2.168,0 -3.8242,0.79688 -4.9688,2.3906 -1.1484,1.5938 -1.7188,3.9141 -1.7188,6.9531 0,3.043 0.57031,5.3594 1.7188,6.9531 1.1445,1.5938 2.8008,2.3906 4.9688,2.3906 z"
         id="path1219" />
    </symbol>
    <symbol
       id="b"
       overflow="visible">
      <path
         d="m 21.875,-6.5781 c 2.1758,0 3.8359,-0.79688 4.9844,-2.3906 1.1562,-1.5938 1.7344,-3.9102 1.7344,-6.9531 0,-3.0391 -0.57812,-5.3594 -1.7344,-6.9531 -1.1484,-1.5938 -2.8086,-2.3906 -4.9844,-2.3906 -2.1875,0 -3.8672,0.80469 -5.0312,2.4062 -1.168,1.6055 -1.75,3.918 -1.75,6.9375 0,3.0234 0.58203,5.3359 1.75,6.9375 1.1641,1.6055 2.8438,2.4062 5.0312,2.4062 z m -6.7812,-20.656 c 1.4062,-1.8516 2.9609,-3.2227 4.6719,-4.1094 1.707,-0.88281 3.6719,-1.3281 5.8906,-1.3281 3.9375,0 7.1641,1.5625 9.6875,4.6875 2.5195,3.125 3.7812,7.1484 3.7812,12.062 0,4.918 -1.2617,8.9375 -3.7812,12.062 -2.5234,3.125 -5.75,4.6875 -9.6875,4.6875 -2.2188,0 -4.1836,-0.44531 -5.8906,-1.3281 -1.7109,-0.88281 -3.2656,-2.2539 -4.6719,-4.1094 V -7e-4 H 4.9058 v -44.312 h 10.188 z"
         id="path1222" />
    </symbol>
    <clipPath
       clipPathUnits="userSpaceOnUse"
       id="clipPath1615">
      <rect
         style="fill:none;stroke-width:0.704123"
         id="rect1617"
         width="605.06122"
         height="565.21179"
         x="66.183914"
         y="-1.7971759" />
    </clipPath>
  </defs>
  <g
     id="g1245"
     clip-path="url(#clipPath1615)"
     transform="translate(-69.9972)">
    <path
       d="m 618.33,350 h -46.664 c -6.4453,0 -11.668,5.2227 -11.668,11.668 0,6.4414 5.2227,11.664 11.668,11.664 h 11.668 V 455 h -58.336 v -11.668 c 12.504,0 24.059,-6.668 30.312,-17.5 6.25,-10.828 6.25,-24.168 0,-35 -6.2539,-10.828 -17.809,-17.5 -30.312,-17.5 h -23.332 v -11.664 c 15.5,-0.8125 30.035,-7.7695 40.395,-19.332 10.355,-11.562 15.68,-26.773 14.789,-42.27 l -7.1172,-115.27 c -0.56641,-8.8945 -4.5,-17.238 -11.004,-23.328 -6.5039,-6.0938 -15.086,-9.4727 -23.996,-9.457 h -119.47 c -8.9102,-0.0156 -17.492,3.3633 -23.996,9.457 -6.5039,6.0898 -10.438,14.434 -11.004,23.328 l -7.1172,115.27 c -0.89063,15.496 4.4336,30.707 14.789,42.27 10.359,11.562 24.895,18.52 40.395,19.332 v 11.668 l -23.332,-0.004 c -12.504,0 -24.059,6.6719 -30.312,17.5 -6.25,10.832 -6.25,24.172 0,35 6.2539,10.832 17.809,17.5 30.312,17.5 V 455 h -70 v -11.668 c 12.504,0 24.059,-6.668 30.312,-17.5 6.25,-10.828 6.25,-24.168 0,-35 -6.2539,-10.828 -17.809,-17.5 -30.312,-17.5 h -23.332 v -11.664 c 15.5,-0.8125 30.035,-7.7695 40.395,-19.332 10.355,-11.562 15.68,-26.773 14.789,-42.27 l -7.1172,-115.27 c -0.56641,-8.8945 -4.5,-17.238 -11.004,-23.328 -6.5039,-6.0938 -15.086,-9.4727 -23.996,-9.457 h -119.47 c -8.9102,-0.0156 -17.492,3.3633 -23.996,9.457 -6.5039,6.0898 -10.438,14.434 -11.004,23.328 l -7.1172,115.27 c -0.89063,15.496 4.4336,30.707 14.789,42.27 10.359,11.562 24.895,18.52 40.395,19.332 v 11.668 l -23.332,-0.004 c -12.504,0 -24.059,6.6719 -30.312,17.5 -6.25,10.832 -6.25,24.172 0,35 6.2539,10.832 17.809,17.5 30.312,17.5 V 455 h -58.332 v -81.668 h 11.664 c 6.4453,0 11.668,-5.2227 11.668,-11.664 0,-6.4453 -5.2227,-11.668 -11.668,-11.668 h -46.664 c -6.4453,0 -11.668,5.2227 -11.668,11.668 0,6.4414 5.2227,11.664 11.668,11.664 h 11.664 v 93.336 c 0,3.0938 1.2305,6.0586 3.418,8.25 2.1875,2.1875 5.1562,3.4141 8.25,3.4141 h 46.668 v 58.332 l -46.668,0.004 c -6.4414,0 -11.668,5.2227 -11.668,11.664 0,6.4453 5.2266,11.668 11.668,11.668 h 501.67 c 6.4414,0 11.664,-5.2227 11.664,-11.668 0,-6.4414 -5.2227,-11.664 -11.664,-11.664 h -58.336 v -58.336 h 46.668 c 3.0938,0 6.0625,-1.2266 8.25,-3.4141 2.1875,-2.1914 3.418,-5.1562 3.418,-8.25 v -93.336 h 11.668 -0.004 c 6.4453,0 11.668,-5.2227 11.668,-11.664 0,-6.4453 -5.2227,-11.668 -11.668,-11.668 z m -241.96,-48.883 7.2344,-115.15 v -0.004 c 0.37109,-6.168 5.4844,-10.977 11.664,-10.965 h 119.47 c 6.1797,-0.0117 11.293,4.7969 11.664,10.965 10.27,170.92 26.602,152.37 -115.03,152.37 -9.6797,0.0195 -18.938,-3.9688 -25.566,-11.02 -6.6328,-7.0508 -10.047,-16.535 -9.4336,-26.195 z m 55.301,60.551 h 46.668 v 11.668 l -46.668,-0.004 z m -46.668,35 h 140 c 6.4414,0 11.668,5.2227 11.668,11.664 0,6.4453 -5.2266,11.668 -11.668,11.668 h -140 c -6.4414,0 -11.668,-5.2227 -11.668,-11.668 0,-6.4414 5.2266,-11.664 11.668,-11.664 z m 23.332,46.668 h 93.332 v 11.668 L 408.335,455 Z m -241.96,-142.22 7.2344,-115.15 v -0.004 c 0.37109,-6.168 5.4844,-10.977 11.664,-10.965 h 119.47 c 6.1797,-0.0117 11.293,4.7969 11.664,10.965 7.4648,119.93 11.668,126.46 -2.2148,141.29 -13.883,14.816 -23.332,11.082 -112.82,11.082 -9.6797,0.0195 -18.938,-3.9688 -25.566,-11.02 -6.6328,-7.0508 -10.047,-16.535 -9.4336,-26.195 z m 55.301,60.551 h 46.668 v 11.668 l -46.668,-0.004 z m -46.668,35 h 140 c 6.4414,0 11.668,5.2227 11.668,11.664 0,6.4453 -5.2266,11.668 -11.668,11.668 h -140 c -6.4414,0 -11.668,-5.2227 -11.668,-11.668 0,-6.4414 5.2266,-11.664 11.668,-11.664 z m 23.332,46.668 h 93.332 v 11.668 l -93.332,-0.004 z m 326.67,93.332 h -350 v -58.336 h 350 z"
       id="path1227" />
    <path
       d="m 560,140 c 18.566,0 36.371,-7.375 49.496,-20.504 C 622.625,106.371 630,88.566 630,70 630,51.434 622.625,33.629 609.496,20.504 596.371,7.375 578.566,0 560,0 541.434,0 523.629,7.375 510.504,20.504 497.375,33.629 490,51.434 490,70 c 0,18.566 7.375,36.371 20.504,49.496 C 523.629,132.625 541.434,140 560,140 Z m 0,-116.67 c 12.375,0 24.246,4.918 33,13.668 8.75,8.7539 13.668,20.625 13.668,33 0,12.375 -4.918,24.246 -13.668,33 -8.7539,8.75 -20.625,13.668 -33,13.668 -12.375,0 -24.246,-4.918 -33,-13.668 -8.75,-8.7539 -13.668,-20.625 -13.668,-33 0,-12.375 4.918,-24.246 13.668,-33 8.7539,-8.75 20.625,-13.668 33,-13.668 z"
       id="path1229" />
    <path
       d="m 569.21,95.785 c 4.5781,4.5742 11.992,4.5742 16.57,0 4.5742,-4.5781 4.5742,-11.992 0,-16.57 l -14.117,-14 V 46.668 C 571.663,40.2227 566.4364,35 559.995,35 c -6.4414,0 -11.668,5.2227 -11.668,11.668 0,34.297 -3.8477,24.266 20.883,49.117 z"
       id="path1231" />
    <use
       x="70"
       y="735"
       xlink:href="#d"
       id="use1233"
       width="100%"
       height="100%" />
    <use
       x="220.50391"
       y="735"
       xlink:href="#a"
       id="use1235"
       width="100%"
       height="100%" />
    <use
       x="287.95312"
       y="735"
       xlink:href="#c"
       id="use1237"
       width="100%"
       height="100%" />
    <use
       x="350.01562"
       y="735"
       xlink:href="#b"
       id="use1239"
       width="100%"
       height="100%" />
    <use
       x="450.10547"
       y="735"
       xlink:href="#a"
       id="use1241"
       width="100%"
       height="100%" />
    <use
       x="639.94531"
       y="735"
       xlink:href="#a"
       id="use1243"
       width="100%"
       height="100%" />
  </g>
</svg>
