<?xml version="1.0" standalone="no"?>
<!DOCTYPE svg PUBLIC "-//W3C//DTD SVG 20010904//EN"
 "http://www.w3.org/TR/2001/REC-SVG-20010904/DTD/svg10.dtd">
<svg version="1.0" xmlns="http://www.w3.org/2000/svg"
 width="561.000000pt" height="561.000000pt" viewBox="0 0 561.000000 561.000000"
 preserveAspectRatio="xMidYMid meet">
<metadata>
Created by potrace 1.14, written by Peter Selinger 2001-2017
</metadata>
<g transform="translate(0.000000,561.000000) scale(0.100000,-0.100000)"
fill="#000000" stroke="none">
<path d="M2638 5606 c-1 -2 -30 -6 -63 -9 -297 -29 -625 -148 -894 -325 -364
-239 -666 -632 -801 -1042 -23 -70 -66 -233 -75 -285 -28 -160 -38 -427 -21
-565 4 -30 9 -75 12 -100 17 -137 99 -463 143 -565 5 -11 17 -42 26 -70 10
-27 23 -63 30 -80 8 -16 35 -79 60 -140 158 -369 448 -852 774 -1290 127 -171
378 -483 487 -605 17 -19 57 -64 89 -100 77 -87 255 -278 332 -357 l63 -64 57
59 c178 181 342 362 547 602 37 43 260 323 291 365 16 22 32 42 35 45 3 3 17
21 30 40 14 19 28 40 33 45 20 25 129 179 188 265 310 453 556 922 691 1320
40 117 101 343 112 415 9 58 16 97 21 125 24 132 24 461 1 580 -1 8 -6 38 -10
65 -10 67 -61 257 -87 325 -11 30 -26 71 -34 91 -15 40 -89 192 -124 254 -31
53 -145 218 -179 258 -94 109 -194 209 -282 282 -25 20 -54 44 -65 53 -43 35
-144 102 -154 102 -6 0 -11 3 -11 8 0 4 -10 12 -23 18 -12 6 -60 32 -107 57
-172 92 -431 177 -610 201 -25 3 -56 9 -70 12 -26 6 -406 15 -412 10z m1089
-890 c25 -22 28 -31 28 -84 -1 -95 -58 -190 -224 -377 -14 -16 -59 -69 -99
-116 -65 -78 -72 -90 -68 -120 17 -120 31 -223 41 -314 4 -27 8 -57 10 -65 3
-8 7 -46 10 -84 3 -38 8 -72 9 -75 2 -3 7 -35 11 -71 4 -36 8 -72 10 -80 7
-41 21 -141 31 -225 3 -33 7 -67 9 -75 1 -8 6 -40 10 -70 3 -30 8 -66 10 -80
2 -14 7 -44 10 -67 4 -27 1 -51 -7 -67 -15 -27 -149 -142 -177 -151 -25 -8
-70 11 -78 32 -3 10 -25 60 -49 111 -24 52 -44 95 -44 97 0 2 -20 46 -44 97
-24 51 -90 194 -146 318 -56 124 -107 233 -112 243 -11 22 7 39 -203 -193 -83
-91 -153 -166 -157 -168 -13 -6 -9 -46 16 -154 45 -195 49 -170 -45 -305 -45
-65 -89 -124 -97 -130 -22 -18 -67 -16 -86 2 -8 8 -36 71 -62 139 l-48 124
-36 -18 c-76 -38 -142 -36 -172 5 -27 36 -30 80 -10 139 l18 55 -80 21 c-170
45 -186 51 -202 76 -27 41 -10 67 113 174 l117 102 75 -7 c42 -4 83 -8 91 -10
8 -2 49 -6 90 -9 l75 -6 60 70 c75 88 95 110 186 211 78 86 103 118 98 123 -2
2 -211 72 -463 157 -454 151 -496 169 -496 210 0 24 115 195 140 209 20 11
158 10 585 -5 72 -2 245 -7 385 -11 140 -3 274 -7 298 -8 l43 -2 152 160 c186
195 190 199 252 240 94 62 173 74 222 32z"/>
</g>
</svg>
